<svg width="16" height="13" viewBox="0 0 16 13" fill="none" xmlns="http://www.w3.org/2000/svg">
<path d="M8.051 1H8.14C8.962 1.00301 13.127 1.03315 14.25 1.3365C14.5895 1.42908 14.8989 1.60953 15.1472 1.85983C15.3955 2.11013 15.574 2.4215 15.665 2.76284C15.766 3.14453 15.837 3.64978 15.885 4.17109L15.895 4.27556L15.917 4.53672L15.925 4.64118C15.99 5.55926 15.998 6.41909 15.999 6.60692V6.68226C15.998 6.87712 15.989 7.7952 15.917 8.75145L15.909 8.85692L15.9 8.96138C15.85 9.53594 15.776 10.1065 15.665 10.5263C15.5743 10.8678 15.3958 11.1793 15.1475 11.4297C14.8991 11.68 14.5896 11.8604 14.25 11.9527C13.09 12.2661 8.681 12.2882 8.07 12.2892H7.928C7.619 12.2892 6.341 12.2831 5.001 12.2369L4.831 12.2309L4.744 12.2269L4.573 12.2199L4.402 12.2128C3.292 12.1636 2.235 12.0843 1.748 11.9517C1.40849 11.8595 1.09907 11.6792 0.850724 11.4291C0.602384 11.1789 0.423847 10.8676 0.333 10.5263C0.222 10.1075 0.148 9.53594 0.098 8.96138L0.09 8.85592L0.082 8.75145C0.0326476 8.07083 0.00529987 7.38877 0 6.70636L0 6.58281C0.002 6.36685 0.01 5.62054 0.064 4.79688L0.071 4.69342L0.074 4.64118L0.082 4.53672L0.104 4.27556L0.114 4.17109C0.162 3.64978 0.233 3.14353 0.334 2.76284C0.424694 2.42136 0.603162 2.10984 0.851513 1.8595C1.09986 1.60916 1.40937 1.4288 1.749 1.3365C2.236 1.20592 3.293 1.12556 4.403 1.07533L4.573 1.0683L4.745 1.06228L4.831 1.05926L5.002 1.05223C5.95371 1.02147 6.90581 1.00439 7.858 1.001H8.051V1ZM6.4 4.22433V9.06384L10.557 6.64509L6.4 4.22433Z" fill="white"/>
</svg>
