<svg width="12" height="12" viewBox="0 0 12 12" fill="none" xmlns="http://www.w3.org/2000/svg">
<g clip-path="url(#clip0_0_50)">
<path d="M2.72398 12V3.90356H0.151644V12H2.72398ZM1.43814 2.79748C2.33516 2.79748 2.89351 2.17577 2.89351 1.39884C2.8768 0.604391 2.3352 -6.10352e-05 1.45517 -6.10352e-05C0.575274 -6.10352e-05 -0.00012207 0.604403 -0.00012207 1.39884C-0.00012207 2.1758 0.558091 2.79748 1.42135 2.79748H1.43806H1.43814ZM4.14776 12H6.72009V7.47853C6.72009 7.23655 6.7368 6.99482 6.80473 6.82184C6.99069 6.33838 7.41394 5.83764 8.12453 5.83764C9.05535 5.83764 9.42773 6.5801 9.42773 7.6685V11.9999H11.9999V7.3575C11.9999 4.87061 10.7308 3.71348 9.03841 3.71348C7.65074 3.71348 7.04146 4.52495 6.70297 5.07763H6.72015V3.90339H4.14781C4.18157 4.66312 4.14781 11.9998 4.14781 11.9998L4.14776 12Z" fill="white"/>
</g>
<defs>
<clipPath id="clip0_0_50">
<rect width="12" height="12" fill="white"/>
</clipPath>
</defs>
</svg>
