<svg width="14" height="14" viewBox="0 0 14 14" fill="none" xmlns="http://www.w3.org/2000/svg">
<g clip-path="url(#clip0_0_54)">
<path d="M7.00013 0C5.09744 0 4.86032 0.0091875 4.11569 0.0406875C3.36801 0.0774375 2.86226 0.193375 2.41601 0.366625C1.94896 0.542946 1.52598 0.819007 1.17657 1.17556C0.819019 1.52416 0.542806 1.94737 0.367632 2.415C0.194382 2.86125 0.0784446 3.367 0.0416946 4.11469C0.00800708 4.85975 0.00100708 5.09644 0.00100708 6.99913C0.00100708 8.90181 0.0101946 9.13894 0.0416946 9.88356C0.0784446 10.6291 0.194382 11.137 0.367632 11.5833C0.543954 12.0503 0.820014 12.4733 1.17657 12.8227C1.52517 13.1802 1.94838 13.4565 2.41601 13.6316C2.86226 13.8027 3.37019 13.9208 4.11569 13.9576C4.86076 13.9913 5.09744 13.9983 7.00013 13.9983C8.90282 13.9983 9.13994 13.9891 9.88457 13.9576C10.6301 13.9208 11.138 13.8023 11.5843 13.6316C12.0513 13.4553 12.4743 13.1792 12.8237 12.8227C13.1817 12.4745 13.458 12.0511 13.6326 11.5833C13.8037 11.137 13.9218 10.6291 13.9586 9.88356C13.9923 9.1385 13.9993 8.90181 13.9993 6.99913C13.9993 5.09644 13.9901 4.85931 13.9586 4.11469C13.9218 3.36919 13.8033 2.85862 13.6326 2.415C13.4563 1.94795 13.1803 1.52498 12.8237 1.17556C12.4755 0.817552 12.0522 0.541266 11.5843 0.366625C11.138 0.193375 10.6301 0.0774375 9.88457 0.0406875C9.13951 0.007 8.90282 0 7.00013 0ZM7.00013 1.26C8.86869 1.26 9.09182 1.26919 9.83032 1.30069C10.5115 1.33263 10.8825 1.44638 11.1288 1.54262C11.4333 1.65503 11.7089 1.83393 11.9356 2.06631C12.1676 2.29199 12.3458 2.56696 12.4571 2.87087C12.5533 3.11719 12.6671 3.48819 12.699 4.16937C12.7305 4.90788 12.7397 5.13144 12.7397 6.99956C12.7397 8.86769 12.7305 9.09125 12.6964 9.82975C12.6596 10.5109 12.5459 10.8819 12.4501 11.1283C12.3175 11.4568 12.1696 11.6865 11.9255 11.935C11.6981 12.1659 11.4227 12.344 11.1188 12.4565C10.8755 12.5527 10.4993 12.6665 9.81544 12.6984C9.07301 12.7299 8.85426 12.7391 6.98088 12.7391C5.10751 12.7391 4.88919 12.7299 4.14588 12.6958C3.46469 12.6591 3.08888 12.5453 2.84257 12.4495C2.51007 12.3169 2.28213 12.1691 2.03801 11.9249C1.79169 11.6786 1.63507 11.4441 1.51432 11.1182C1.41632 10.8749 1.30432 10.4987 1.26801 9.81487C1.24307 9.08119 1.23126 8.85369 1.23126 6.98906C1.23126 5.12531 1.24307 4.89738 1.26801 4.1545C1.30432 3.47069 1.41632 3.09531 1.51432 2.85119C1.63507 2.51825 1.79213 2.29075 2.03801 2.04444C2.28169 1.80075 2.51007 1.64325 2.84257 1.51988C3.08888 1.42406 3.45551 1.31031 4.13932 1.27619C4.88176 1.2495 5.10051 1.23988 6.97126 1.23988L7.00013 1.26ZM7.00013 3.40681C6.52822 3.40664 6.0609 3.49946 5.62488 3.67998C5.18885 3.86049 4.79267 4.12516 4.45898 4.45885C4.12529 4.79254 3.86062 5.18872 3.68011 5.62474C3.49959 6.06077 3.40677 6.52809 3.40694 7C3.40677 7.47191 3.49959 7.93923 3.68011 8.37526C3.86062 8.81128 4.12529 9.20746 4.45898 9.54115C4.79267 9.87484 5.18885 10.1395 5.62488 10.32C6.0609 10.5005 6.52822 10.5934 7.00013 10.5932C7.47204 10.5934 7.93937 10.5005 8.37539 10.32C8.81141 10.1395 9.20759 9.87484 9.54128 9.54115C9.87498 9.20746 10.1396 8.81128 10.3202 8.37526C10.5007 7.93923 10.5935 7.47191 10.5933 7C10.5935 6.52809 10.5007 6.06077 10.3202 5.62474C10.1396 5.18872 9.87498 4.79254 9.54128 4.45885C9.20759 4.12516 8.81141 3.86049 8.37539 3.67998C7.93937 3.49946 7.47204 3.40664 7.00013 3.40681ZM7.00013 9.33319C5.71038 9.33319 4.66694 8.28975 4.66694 7C4.66694 5.71025 5.71038 4.66681 7.00013 4.66681C8.28988 4.66681 9.33332 5.71025 9.33332 7C9.33332 8.28975 8.28988 9.33319 7.00013 9.33319ZM11.5781 3.26331C11.5779 3.48629 11.4892 3.70006 11.3314 3.85764C11.1737 4.01523 10.9598 4.10375 10.7368 4.10375C10.6266 4.10375 10.5174 4.08203 10.4155 4.03984C10.3137 3.99765 10.2211 3.93581 10.1432 3.85785C10.0652 3.77989 10.0034 3.68733 9.96116 3.58547C9.91897 3.48361 9.89726 3.37444 9.89726 3.26419C9.89726 3.15393 9.91897 3.04476 9.96116 2.9429C10.0034 2.84104 10.0652 2.74849 10.1432 2.67053C10.2211 2.59257 10.3137 2.53072 10.4155 2.48853C10.5174 2.44634 10.6266 2.42462 10.7368 2.42462C11.1993 2.42462 11.5781 2.80087 11.5781 3.26331Z" fill="white"/>
</g>
<defs>
<clipPath id="clip0_0_54">
<rect width="14" height="14" fill="white"/>
</clipPath>
</defs>
</svg>
