<svg width="16" height="16" viewBox="0 0 16 16" fill="none" xmlns="http://www.w3.org/2000/svg">
<path d="M7.647 2.14598C7.69345 2.09941 7.74862 2.06247 7.80937 2.03727C7.87011 2.01206 7.93523 1.99908 8.001 1.99908C8.06677 1.99908 8.13189 2.01206 8.19263 2.03727C8.25338 2.06247 8.30855 2.09941 8.355 2.14598C9.595 3.38998 10.969 3.99998 12.5 3.99998C12.6326 3.99998 12.7598 4.05266 12.8536 4.14643C12.9473 4.24019 13 4.36737 13 4.49998V7.50098C13 10.72 11.359 12.908 8.158 13.974C8.05545 14.0082 7.94455 14.0082 7.842 13.974C4.642 12.908 3 10.72 3 7.50098V4.49998C3 4.36737 3.05268 4.24019 3.14645 4.14643C3.24021 4.05266 3.36739 3.99998 3.5 3.99998C5.03 3.99998 6.404 3.38898 7.647 2.14598Z" fill="url(#paint0_linear_0_75)"/>
<defs>
<linearGradient id="paint0_linear_0_75" x1="8" y1="5.50006" x2="8" y2="13.9997" gradientUnits="userSpaceOnUse">
<stop offset="0.128017" stop-color="#00A78E"/>
<stop offset="0.703465" stop-color="#69FCE6"/>
<stop offset="1" stop-color="white"/>
</linearGradient>
</defs>
</svg>
