<svg width="195" height="119" viewBox="0 0 195 119" fill="none" xmlns="http://www.w3.org/2000/svg">
<g clip-path="url(#clip0_1_8773)">
<path d="M62.7155 3.14693C51.1593 5.88507 45.1071 0.797026 44.2846 0.0614051C44.2846 0.0614051 44.2635 -0.0203306 44.2425 0.0205372C44.2003 0.000103316 44.2003 0.0614051 44.2003 0.0614051C43.42 0.858328 37.663 6.23245 25.9803 4.10732C25.9803 4.10732 24.7572 24.4186 31.7795 32.5105C39.2657 41.154 45.4445 43.6674 45.4656 43.6265C45.4866 43.6469 51.5811 40.8679 58.519 31.7953C64.993 23.3152 62.7155 3.14693 62.7155 3.14693Z" fill="white"/>
<path d="M61.0706 5.27201C50.5899 7.72408 45.1071 3.20819 44.369 2.53387C44.369 2.53387 44.3479 2.47257 44.3268 2.493C44.3057 2.47257 44.2846 2.53387 44.2846 2.53387C43.5887 3.24906 38.3589 8.03059 27.7517 6.15067C27.7517 6.15067 26.6341 24.2347 32.9815 31.4274C39.7718 39.1106 45.3812 41.8283 45.4023 41.8079C45.4234 41.8283 50.9484 38.8654 57.2537 30.794C63.1372 23.2334 61.0706 5.27201 61.0706 5.27201Z" fill="white"/>
<g opacity="0.06">
<path d="M44.3057 4.31158C44.3057 4.31158 44.3268 4.22984 44.3479 4.27071C44.369 4.25027 44.3901 4.31158 44.3901 4.31158C45.1492 5.00633 50.6954 9.56309 61.2604 7.31536C61.155 5.47631 61.0284 4.33201 61.0284 4.33201C50.5478 6.78408 45.0649 2.26819 44.3268 1.59387C44.3268 1.59387 44.3057 1.53256 44.2846 1.553C44.2636 1.53256 44.2425 1.59387 44.2425 1.59387C43.5466 2.30905 38.3168 7.09059 27.7095 5.21067C27.7095 5.21067 27.6463 6.35497 27.6252 8.19402C38.3168 9.89003 43.5887 5.02676 44.3057 4.31158Z" fill="black"/>
</g>
<path d="M58.0761 10.36C50.1471 12.2399 45.0649 8.6027 44.4955 8.09185C44.4955 8.09185 44.4744 8.03055 44.4533 8.05098C44.4322 8.03055 44.4322 8.09185 44.4322 8.09185C43.905 8.64357 39.0548 12.526 31.0414 11.0752C31.0414 11.0752 31.1047 24.8068 35.9127 30.3444C41.0371 36.2702 45.2758 37.9867 45.2968 37.9662C45.3179 37.9867 49.4933 36.0659 54.2381 29.854C58.7088 24.0303 58.0761 10.36 58.0761 10.36Z" fill="#136C5F"/>
<path d="M52.6938 19.6868C51.0079 19.7466 49.322 19.8065 47.6361 19.8664C47.4676 19.8724 47.32 19.8776 47.1514 19.8836C47.1065 18.6992 47.0607 17.4944 47.0158 16.3101C46.9933 15.7179 46.97 15.1053 46.9476 14.5131C46.9398 14.3089 46.765 14.1515 46.5543 14.159C45.5006 14.1964 44.4469 14.2338 43.4143 14.2705C43.2036 14.278 43.0412 14.4473 43.0489 14.6515C43.1109 16.2851 43.173 17.9188 43.235 19.5524C43.2412 19.7157 43.2466 19.8587 43.2528 20.022C42.0305 20.0654 40.7872 20.1096 39.5649 20.153C38.9538 20.1747 38.3215 20.1972 37.7104 20.2189C37.4997 20.2263 37.3373 20.3957 37.345 20.5999C37.3838 21.6209 37.4226 22.6419 37.4605 23.6425C37.4652 23.765 37.5104 23.8452 37.576 23.9042C37.6415 23.9632 37.7274 24.0011 37.8538 23.9966C39.5397 23.9367 41.2256 23.8768 42.9115 23.817C43.0801 23.811 43.2276 23.8057 43.3962 23.7998C43.4412 24.9841 43.4869 26.1889 43.5319 27.3733C43.5544 27.9655 43.5776 28.5781 43.6001 29.1703C43.6078 29.3745 43.7827 29.5318 43.9934 29.5244C45.0471 29.4869 46.1008 29.4495 47.1334 29.4128C47.2598 29.4084 47.3425 29.3645 47.4034 29.301C47.4643 29.2375 47.5034 29.1543 47.4987 29.0318C47.4367 27.3982 47.3747 25.7646 47.3127 24.131C47.3065 23.9676 47.3011 23.8247 47.2949 23.6613C48.5171 23.6179 49.7605 23.5738 50.9828 23.5303C51.5939 23.5086 52.2261 23.4862 52.8373 23.4645C53.048 23.457 53.2104 23.2877 53.2026 23.0835C53.1639 22.0625 53.1251 21.0414 53.0871 20.0409C53.1004 19.8359 52.9046 19.6793 52.6938 19.6868Z" fill="white"/>
<path d="M46.1826 44.2803L44.9173 43.136L44.8962 41.6443L44.5588 41.4809L44.3479 41.8691L43.9683 40.6431L43.0826 40.0709L41.733 40.5613L40.9738 41.7874L41.6276 43.0134L43.0405 43.9125L44.7064 45.5676L46.1826 44.2803Z" fill="#EAC5B0"/>
<path d="M46.056 42.8908L43.7785 45.5064L49.8729 54.4768L52.1504 55.192L61.8087 47.7132L59.236 42.6047L52.0239 48.5306L46.056 42.8908Z" fill="white"/>
<path d="M76.7179 113.347L77.0553 114.859L74.3982 116.984L72.5424 115.799L73.7234 113.98L76.3805 111.855L76.7179 113.347Z" fill="#3B455A"/>
<path d="M67.3759 67.2276L70.3493 73.8891L70.6446 92.6474L76.7811 112.836L73.9132 114.062L61.387 90.6244L59.9741 83.2069L59.4047 67.575L67.3759 67.2276Z" fill="#BCBEC0"/>
<path d="M52.9096 68.7193L52.6776 88.3767L56.5156 113.735H59.4469L61.3026 90.3384L65.3304 66.9415L52.9096 68.7193Z" fill="#BCBEC0"/>
<path d="M59.4258 113.388V114.941L56.2626 116.473L54.6599 114.941L56.2626 113.388H59.4258Z" fill="#3B455A"/>
<path d="M58.7088 42.0939L66.5113 41.8078C66.5113 41.8078 71.1928 45.772 73.5968 56.1115C76.0641 66.6146 73.1329 81.7561 73.1329 81.7561C73.1329 81.7561 52.1715 79.0588 48.7342 78.6297L53.9851 57.8689L58.7088 42.0939Z" fill="#FF725E"/>
<path d="M61.5135 42.8499C62.4203 42.7682 63.3481 42.6864 64.2549 42.5843C64.2549 41.8691 64.2127 41.1743 64.1073 40.4591C64.8665 40.1935 65.7521 39.8053 65.8787 39.0492C65.9209 38.804 65.8787 38.5588 65.8365 38.3136C65.6678 37.3123 65.478 36.3111 65.3093 35.3098C65.246 34.9624 65.1828 34.615 64.993 34.3085C64.6556 33.7773 63.9808 33.5525 63.3692 33.4503C61.7665 33.1847 60.0162 33.5116 58.7721 34.5333C58.4346 34.799 58.1394 35.1259 57.9918 35.5141C57.7598 36.1272 57.9285 36.8015 58.0972 37.4145C58.2448 37.9866 58.4136 38.5588 58.5612 39.1514C58.7299 39.8053 59.004 40.5613 59.6577 40.827C60.0162 40.9496 60.4169 40.9291 60.7332 41.113C61.3026 41.4808 61.2182 42.2778 61.5135 42.8499Z" fill="#EAC5B0"/>
<path d="M52.5933 32.8373C52.5722 32.1426 52.6776 31.4478 52.8253 30.8348C53.0783 29.7518 54.3858 29.2818 55.5034 29.2001C57.9496 29.0366 60.3115 27.9536 62.7155 28.7914C64.0862 29.2614 65.9209 29.384 67.165 30.0583C67.6922 30.3444 68.0929 30.7735 68.4092 31.2639C69.5269 32.9395 69.5269 35.2281 68.4092 36.9037C68.1562 37.2715 67.8609 37.6189 67.5446 37.9458C66.8909 38.6201 66.1317 39.4579 65.246 39.7031C65.225 38.9266 65.963 36.5154 65.3515 35.882C64.3814 34.8807 62.1883 35.2281 60.9863 35.4733C59.6788 35.7389 58.4979 36.638 57.2115 36.8219C56.2837 36.965 55.0817 36.5154 54.2803 36.0454C53.0361 35.3098 52.6355 34.0838 52.5933 32.8373Z" fill="#3B455A"/>
<path d="M60.8598 43.0134L52.6566 74.8494L51.9818 79.0179L62.2094 80.3257C62.2094 80.3257 61.8087 65.082 61.9353 63.059C62.0618 61.0361 63.5801 56.6224 63.8121 51.9021C63.9386 49.164 64.8454 44.2394 64.2127 42.6456L60.8598 43.0134Z" fill="#EAE2E2"/>
<path d="M53.5001 60.0144L51.6865 60.5662L50.1893 59.7897L49.8519 60.0144L50.126 60.4231L48.692 60.1166L47.6376 60.6479L47.4057 62.16L48.2281 63.5291L49.7886 63.5904L51.4546 62.7526L53.9851 62.0783L53.5001 60.0144Z" fill="#EAC5B0"/>
<path d="M51.9607 60.137C54.8075 59.4831 57.6544 58.8497 60.4802 58.1958C61.2393 58.0119 62.0407 57.9915 62.7999 57.8076C63.9175 57.5419 64.2338 57.4602 64.3814 56.4181C64.8454 53.4143 64.2549 50.3083 64.7189 47.3658C65.8365 47.2637 66.9331 46.998 68.0718 47.0185C69.9487 47.0389 69.78 48.2854 69.8854 49.6749C70.0119 51.33 70.0752 52.9851 70.0963 54.6199C70.0963 55.9889 70.5813 61.9352 68.4936 62.3643C66.9963 62.6708 52.0028 63.4473 52.0239 63.7538C52.0239 63.6312 51.9607 60.137 51.9607 60.137Z" fill="white"/>
<path d="M30.3877 45.9968L31.4421 45.0364L31.4632 43.8103L31.7373 43.6673L31.906 43.9942L32.2223 42.9725L32.9815 42.5026L34.0781 42.9112L34.7318 43.9125L34.1835 44.9546L33.0026 45.6903L31.6319 47.0593L30.3877 45.9968Z" fill="#EAC5B0"/>
<path d="M30.7251 44.4846L24.8416 51.2483L17.1445 44.0351L15.9425 52.6786L25.3055 57.1741L32.6863 46.4667L30.7251 44.4846Z" fill="white"/>
<path d="M5.04004 112.223L4.91351 113.429L7.19101 114.961L8.51955 113.878L7.44406 112.509L5.16657 110.997L5.04004 112.223Z" fill="#3B455A"/>
<path d="M5.08222 74.9108L4.70264 78.6297L8.13997 91.3601L4.95569 111.814L7.29645 112.591L13.4752 92.627L14.4453 86.8033L14.4242 74.5021L5.08222 74.9108Z" fill="#EAC5B0"/>
<path d="M23.1124 79.0384L18.1778 113.326H15.9425L15.5418 91.36L11.4718 75.9324L23.1124 79.0384Z" fill="#EAC5B0"/>
<path d="M15.9636 113.061V114.287L18.3887 115.513L19.5907 114.287L18.3887 113.061H15.9636Z" fill="#3B455A"/>
<path d="M17.6084 43.8512C17.4397 43.5651 17.1867 43.3404 16.8704 43.1565C14.635 41.9304 10.9446 43.0134 8.54063 43.0134C7.82364 50.3083 5.86246 57.2354 4.5761 64.3873C3.22647 71.9887 1.68705 79.5697 1.74611e-05 87.0894C-0.105422 87.5185 6.72706 87.2937 7.3597 87.3142C13.918 87.4163 22.5219 87.3959 28.8483 85.4751C24.7994 74.9721 23.3233 63.6517 20.1601 52.8626C19.6118 50.9622 18.937 49.1027 18.4309 47.2024C18.1356 46.099 18.1778 44.7708 17.6084 43.8512Z" fill="white"/>
<path d="M14.635 33.103C16.301 33.5525 17.6084 35.0238 17.7771 36.6993C18.6839 35.882 19.1479 34.6151 18.9792 33.4299C18.8104 32.2447 18.0091 31.1413 16.9125 30.5896C15.8792 31.1209 15.0779 32.0608 14.7405 33.1438L14.635 33.103Z" fill="#3B455A"/>
<path d="M18.0091 35.2689C17.1445 30.8757 11.4929 31.6317 9.86915 35.1872C8.94129 37.2102 9.91133 40.0709 11.7671 41.4809C11.8092 41.8691 11.8514 42.9521 12.1677 43.1973C12.5051 43.4834 13.5385 43.2177 13.9602 43.1156C14.0656 43.0951 14.1922 43.0543 14.2765 42.9725C14.382 42.8704 14.4031 42.6047 14.4031 42.2982C14.6983 42.2778 15.0146 42.2165 15.3309 42.1143C16.6384 41.6852 17.6084 40.5205 17.988 39.2331C18.3676 37.9662 18.2621 36.5767 18.0091 35.2689Z" fill="#EAC5B0"/>
<path d="M9.74264 57.1741C9.55285 56.8676 9.44741 56.5407 9.38415 56.2137C9.27871 55.662 9.36306 55.0694 9.59502 54.5586C9.70046 54.3338 9.95352 54.2112 10.2066 54.3134C10.4385 54.3951 10.5651 54.6812 10.4596 54.906C10.2066 55.4168 10.2066 55.989 10.4175 56.4998C10.5229 56.4385 10.6494 56.3772 10.7759 56.3364C11.2188 56.1933 11.8936 56.0298 12.231 56.4589C12.6106 56.9494 12.2732 57.5215 11.7671 57.7667C11.3875 57.9506 10.9025 58.0324 10.5018 57.8893C10.5018 58.441 10.6705 58.7271 11.1977 58.8702C11.5351 58.9723 12.3575 59.0541 12.6106 58.7475C12.7793 58.5432 12.7582 57.9506 12.8215 57.7054C12.9902 56.9698 13.2432 56.275 13.5596 55.6007C14.2133 54.2317 15.1833 53.0056 16.3221 51.9635C18.8948 49.634 22.29 48.265 25.7273 47.6724C25.9171 47.6315 26.1069 47.6111 26.2967 47.5702C28.6585 47.2228 30.9782 47.2841 33.1291 47.7541C33.6142 47.0185 34.2257 46.3646 34.9638 45.8742C36.6087 44.7708 38.9072 44.546 40.6786 45.4859C39.3079 47.0389 38.1692 49.2866 37.9794 49.6545C40.046 50.9009 41.7963 52.6174 43.0616 54.7834C43.0826 54.8242 43.1037 54.8651 43.1459 54.906L45.7186 55.2942C45.7186 55.2942 46.6887 60.1779 46.1193 61.6492C46.1193 61.6492 44.1159 62.4461 42.9139 62.773C42.0072 64.7756 40.4677 66.5942 38.4644 68.045C38.3379 68.1472 38.1902 68.2289 38.0637 68.3311L38.6964 72.2339C38.6964 72.2339 35.6175 73.746 33.9516 73.46L32.5809 70.8649C31.8006 71.0896 30.9782 71.2531 30.1347 71.3757C29.1435 71.5187 28.1524 71.6005 27.2034 71.6413L26.6973 74.5634C25.2001 75.299 21.8049 74.7882 21.8049 74.7882L21.1723 70.8853C16.7438 69.5367 13.4752 66.4511 12.7371 61.8126C12.6739 61.4244 12.6317 61.0361 12.6106 60.6479C11.8936 60.6275 11.1766 60.4436 10.6072 60.0145C10.1644 59.6671 9.86917 59.2175 9.72155 58.6862C9.59502 58.1958 9.51067 57.6237 9.74264 57.1741Z" fill="#EAC5B0"/>
<path d="M32.0748 48.2445L31.7584 49.7158C31.7584 49.7158 27.0347 49.1641 22.4165 51.1257L21.2356 50.2879C21.2356 50.3084 25.2634 46.569 32.0748 48.2445Z" fill="#DBAD95"/>
<path opacity="0.03" d="M13.897 61.9761C16.0479 65.0003 19.5275 66.8394 23.1335 67.7589C25.7906 68.4332 28.6796 68.7602 31.4632 68.4945C35.491 68.1063 39.1181 66.3694 42.45 64.2851C42.5976 64.183 42.7452 64.1012 42.8929 63.9991C41.9861 65.3886 40.7841 66.635 39.3079 67.718C37.0515 69.3732 34.1836 70.5788 30.9782 71.0488C22.4376 72.3361 14.8038 68.9236 13.6017 61.5266C13.6861 61.6696 13.7915 61.8331 13.897 61.9761Z" fill="black"/>
<path opacity="0.03" d="M44.0316 54.7425C44.0316 54.7425 46.0771 59.5036 43.7364 62.5074L44.9595 62.1396C44.9595 62.1396 46.1404 57.6032 44.0316 54.7425Z" fill="black"/>
<path d="M29.6075 34.0838C26.9926 34.4925 25.2212 36.8628 25.6429 39.3966C26.0647 41.9304 28.5109 43.6469 31.1258 43.2382C33.7407 42.8295 35.5121 40.4592 35.0903 37.9254C34.6686 35.3916 32.2224 33.6751 29.6075 34.0838Z" fill="#FFBA00"/>
<path opacity="0.1" d="M29.5442 33.6751C26.6973 34.1247 24.7783 36.7198 25.2212 39.4579C25.6851 42.2165 28.3633 44.076 31.189 43.6469C34.0359 43.1973 35.9549 40.6022 35.5121 37.8641C35.0692 35.1055 32.3911 33.2256 29.5442 33.6751ZM31.0625 42.8091C28.7007 43.1769 26.4654 41.6239 26.0858 39.3353C25.7062 37.0467 27.3089 34.8807 29.6707 34.5129C32.0326 34.1451 34.2679 35.6981 34.6475 37.9867C35.027 40.2753 33.4244 42.4413 31.0625 42.8091Z" fill="#232020"/>
<path d="M29.4598 33.1643C26.3388 33.6547 24.209 36.5154 24.7151 39.5396C25.2212 42.5639 28.1735 44.6277 31.2945 44.1373C34.4155 43.6469 36.5454 40.7861 36.0393 37.7619C35.5332 34.7377 32.6019 32.6738 29.4598 33.1643ZM31.1469 43.2382C28.532 43.6469 26.0858 41.9304 25.664 39.3966C25.2423 36.8628 27.0136 34.4925 29.6285 34.0838C32.2434 33.6751 34.6896 35.3916 35.1114 37.9254C35.5121 40.4387 33.7407 42.8295 31.1469 43.2382Z" fill="#FFBA00"/>
<path d="M29.0592 40.2753C28.9959 40.2548 28.9748 40.1731 28.9537 40.0914C28.8905 39.9075 28.9959 39.744 29.1857 39.7031C29.4598 39.6214 29.7972 39.7848 30.0714 39.8666C30.3033 39.9279 30.5564 39.9483 30.8095 39.9075C31.0836 39.8666 31.2945 39.7644 31.4421 39.6009C31.5897 39.4375 31.653 39.2536 31.6108 39.0492C31.5686 38.8245 31.4843 38.6814 31.3367 38.6201C31.189 38.5588 30.9571 38.5384 30.6197 38.5792L30.4088 38.6201C29.8816 38.7018 29.4387 38.661 29.1224 38.4771C28.8061 38.2932 28.6163 38.0071 28.553 37.5984C28.4898 37.1897 28.5741 36.8628 28.8061 36.5972C29.0381 36.3315 29.4177 36.168 29.9027 36.0863C30.1136 36.0659 30.3244 36.0659 30.5353 36.0863C30.9992 36.1476 31.7795 36.3928 31.6952 36.8424C31.5897 37.3532 30.7251 36.7606 30.4299 36.6993C30.2612 36.6585 30.0714 36.6585 29.8605 36.6789C29.6074 36.7198 29.4177 36.8015 29.2911 36.965C29.1646 37.108 29.1013 37.2919 29.1435 37.4758C29.1646 37.6597 29.27 37.8028 29.4387 37.8436C29.6074 37.9049 29.9449 37.9049 30.451 37.8436C30.9992 37.7823 31.421 37.8232 31.6952 37.9867C31.9904 38.1501 32.1591 38.4566 32.2223 38.8858C32.2856 39.2944 32.2013 39.6418 31.9693 39.9279C31.7373 40.214 31.3788 40.3979 30.8938 40.4592C30.7462 40.4796 30.5775 40.5 30.3877 40.4796C30.0714 40.5205 29.502 40.4796 29.0592 40.2753Z" fill="#E9AB03"/>
<path d="M30.9571 41.6035C30.7884 41.6239 30.6408 41.5013 30.5986 41.3174L29.6918 35.6776C29.6707 35.4937 29.7762 35.3303 29.9238 35.3098C30.0925 35.2894 30.2401 35.412 30.2823 35.5959L31.189 41.2357C31.2101 41.4196 31.1047 41.583 30.9571 41.6035Z" fill="#E9AB03"/>
<path d="M12.1467 59.4832L13.6439 59.9532L14.8881 59.3197L15.1412 59.5036L14.9303 59.851L16.1112 59.6058L16.9758 60.0553L17.1445 61.3018L16.4697 62.4257L15.1622 62.4665L13.8126 61.7513L11.7249 61.1792L12.1467 59.4832Z" fill="#EAC5B0"/>
<path d="M8.16106 57.9097C7.52842 57.5011 7.08557 56.9085 7.0434 56.0298C7.00122 55.2329 7.19101 54.436 7.33863 53.6391C7.80256 51.1257 7.7393 48.5306 7.16992 46.0376C6.60055 43.5651 3.62715 46.6711 3.24757 47.795C2.82581 49.0414 2.95234 50.3901 2.8469 51.657C2.72037 53.3734 2.65711 55.1103 2.65711 56.8267C2.65711 57.9097 2.38297 60.5049 3.56389 61.1179C3.88021 61.2813 4.25979 61.3426 4.61828 61.4039C5.18766 61.4857 11.9358 62.3235 12.0412 61.9965L12.9691 59.1358C11.5562 58.8701 9.44742 58.7475 8.16106 57.9097Z" fill="white"/>
<path d="M9.6372 52.6991C9.70046 52.6991 9.74264 52.6991 9.76373 52.6787C10.7549 52.5152 12.3575 52.2087 12.8215 51.187C13.3065 50.1448 12.4419 48.2445 12.3154 47.1615C12.1045 45.5064 12.0412 43.8512 11.9569 42.1961C11.8725 40.7044 12.4419 39.2331 13.2432 37.9458C14.0446 36.6585 15.099 35.555 16.1534 34.4516C16.5962 33.9816 17.0391 33.4912 17.1656 32.8782C17.3132 32.2039 17.0391 31.4887 16.5751 30.9574C15.8792 30.14 15.0357 29.7518 13.9602 29.7109C10.2066 29.6292 7.40188 31.7748 6.34748 35.3098C4.82915 40.3774 6.72707 45.2407 6.45292 50.2879C6.41075 51.1461 6.11552 52.0043 5.60941 52.7195C5.73593 52.5356 8.83586 52.74 9.6372 52.6991Z" fill="#3B455A"/>
<path d="M165.899 28.3214L165.498 25.3789L166.784 25.1542L167.522 27.1158L168.092 26.7276L168.113 29.2818L166.805 29.6905L165.899 28.3214Z" fill="#EBCEB1"/>
<path d="M185.152 43.8308L173.617 40.7452L168.408 28.4236L165.857 29.3635L168.661 45.2407L181.926 52.0656L185.152 43.8308Z" fill="#6D6592"/>
<path d="M182.959 73.746V77.6897L177.539 94.7725L178.889 112.53L175.494 113.183L170.074 91.503L170.285 85.1072L172.773 72.0908L182.959 73.746Z" fill="white"/>
<path d="M178.657 78.4254L184.098 114.573H186.586L188.146 94.8542L191.542 75.1355L178.657 78.4254Z" fill="white"/>
<path d="M176.063 113.633L173.469 116.289L174.207 117.638L179.564 115.145L178.573 113.183L176.063 113.633Z" fill="#3B455A"/>
<path d="M184.14 115.411L180.955 117.352L181.335 118.844L187.155 117.72L186.712 115.595L184.14 115.411Z" fill="#3B455A"/>
<path d="M175.473 34.2268C177.666 34.3903 179.732 32.633 181.883 33.0621C183.296 33.3482 184.393 34.5538 184.836 35.9228C185.025 36.5563 185.11 37.251 184.92 37.8845C184.793 38.2932 184.562 38.661 184.287 38.9879C183.929 39.417 183.465 39.7849 182.959 40.0709C183.233 40.5 183.549 40.9087 183.908 41.2765C182.896 41.6443 181.883 42.0326 180.871 42.4004C180.639 41.8282 180.428 41.2765 180.196 40.7044C179.901 40.6839 179.585 40.6431 179.29 40.5613C177.497 40.1118 176 38.5792 175.599 36.7811C175.388 35.9637 175.43 35.0851 175.473 34.2268Z" fill="#EAC5B0"/>
<path d="M176.042 34.8603L182.832 34.0838L184.14 39.1105L186.059 37.6393L185.089 29.4044L175.494 29.2001L171.339 31.5704L171.508 33.9407L175.22 36.3519L176.042 34.8603Z" fill="#4E4E4E"/>
<path d="M178.678 43.1973L186.755 40.0914C186.755 40.0914 190.529 47.8154 193.798 58.8701C197.067 69.9249 192.744 85.2912 192.744 85.2912C192.744 85.2912 170.222 80.8366 166.531 80.1418L173.828 58.0119L178.678 43.1973Z" fill="#7F789C"/>
<path d="M179.817 19.5757L177.349 16.6537H177.265C177.139 16.3063 177.033 15.9793 176.907 15.632C176.274 13.8542 175.641 12.0765 175.009 10.2783C174.46 8.70486 174.102 6.10975 172.035 5.84411L152.445 3.47378C150.273 3.20813 148.122 4.25026 146.92 6.13018L142.765 12.7303L142.449 12.6895L135.616 13.8951C133.17 14.7124 131.42 16.7967 131.104 19.2896L130.619 23.029L180.365 29.057L181.061 23.7442C181.251 22.2525 180.808 20.7404 179.817 19.5757Z" fill="white"/>
<path d="M161.07 14.1403L174.144 15.7341L172.099 8.29616C171.993 7.92835 171.677 7.66271 171.318 7.6014L162.082 6.47754L161.07 14.1403Z" fill="#D7E8F4"/>
<path d="M159.825 6.19147L152.339 5.29238C150.758 5.10847 149.197 5.86453 148.311 7.2336L145.169 12.2195L158.834 13.8746L159.825 6.19147Z" fill="#D7E8F4"/>
<g opacity="0.2">
<path d="M172.246 10.0331C172.415 10.1353 172.562 10.2579 172.731 10.36L172.162 8.31664C172.056 7.94883 171.74 7.68319 171.382 7.62189L168.176 7.23364C169.526 8.19404 170.875 9.11356 172.246 10.0331Z" fill="#FFFFF1"/>
<path d="M172.267 11.7495C170.032 10.1966 167.691 8.45968 165.477 6.88627L162.461 6.55933C164.296 8.52098 166.7 10.36 168.83 11.9947C170.095 12.9756 171.424 13.936 172.773 14.8146C173.216 15.1007 173.68 15.3868 174.144 15.6524L173.258 12.4239C172.942 12.2195 172.605 11.9947 172.267 11.7495Z" fill="#FFFFF1"/>
<path d="M156.894 10.5031C155.966 9.74702 154.996 9.03183 154.026 8.35751C153.035 7.66276 152.023 6.94757 150.968 6.35499C150.61 6.15065 150.273 5.96674 149.914 5.78284C149.281 6.13021 148.733 6.62063 148.332 7.25408L148.311 7.29495C149.345 8.19404 150.378 9.09313 151.411 9.99222C152.93 11.3409 154.638 12.4239 156.325 13.5682L158.876 13.8747L159.066 12.4852C158.307 11.8108 157.632 11.1161 156.894 10.5031Z" fill="#FFFFF1"/>
</g>
<path opacity="0.1" d="M149.45 25.3176C149.513 25.1133 149.577 24.8885 149.598 24.6637C149.893 22.4364 147.911 20.3522 145.211 20.0252C144.157 19.9026 143.124 20.0457 142.28 20.4339C143.904 20.9856 145.275 21.9665 146.35 23.1721C146.898 23.7851 147.299 24.4185 147.594 25.0724L149.45 25.3176Z" fill="black"/>
<path opacity="0.1" d="M175.22 28.4236C175.283 28.2193 175.346 27.9945 175.367 27.7697C175.663 25.5424 173.744 23.4786 171.087 23.1516C170.053 23.029 169.062 23.1925 168.219 23.5603C169.8 24.0916 171.15 25.0929 172.183 26.2985C172.71 26.9115 173.111 27.5449 173.385 28.1988L175.22 28.4236Z" fill="black"/>
<path d="M146.356 27.4962C148.278 26.0482 148.624 23.3651 147.13 21.5032C145.636 19.6413 142.866 19.3057 140.945 20.7536C139.023 22.2016 138.677 24.8848 140.171 26.7467C141.666 28.6086 144.435 28.9442 146.356 27.4962Z" fill="#293651"/>
<path d="M142.47 26.2576C141.247 25.6241 140.804 24.1529 141.458 22.9677C142.112 21.7825 143.63 21.3534 144.853 21.9869C146.076 22.6203 146.519 24.0916 145.865 25.2767C145.19 26.4619 143.672 26.891 142.47 26.2576Z" fill="#F7F7F7"/>
<path opacity="0.1" d="M143.862 25.8693C144.347 25.8897 144.832 25.7876 145.211 25.5015C145.001 25.9102 144.6 26.1963 144.136 26.2576C143.988 26.278 143.82 26.278 143.672 26.2576C143.503 26.2576 143.335 26.2371 143.187 26.1962C142.765 26.0736 142.386 25.7671 142.217 25.3585C142.28 25.4811 142.744 25.6241 142.871 25.665C143.187 25.7671 143.524 25.8489 143.862 25.8693Z" fill="black"/>
<path d="M172.188 30.6315C174.109 29.1835 174.455 26.5003 172.961 24.6384C171.467 22.7765 168.698 22.4409 166.776 23.8889C164.855 25.3369 164.508 28.0201 166.003 29.882C167.497 31.7439 170.266 32.0794 172.188 30.6315Z" fill="#293651"/>
<path d="M168.303 29.4044C167.08 28.7709 166.637 27.2997 167.29 26.1145C167.944 24.9294 169.463 24.5003 170.686 25.1337C171.909 25.7672 172.352 27.2384 171.698 28.4236C171.044 29.5883 169.526 30.0379 168.303 29.4044Z" fill="#F7F7F7"/>
<path opacity="0.1" d="M169.716 28.9957C170.201 29.0161 170.686 28.914 171.065 28.6279C170.854 29.0366 170.454 29.3227 169.99 29.384C169.842 29.4044 169.673 29.4044 169.526 29.384C169.357 29.384 169.188 29.3635 169.041 29.3227C168.619 29.2001 168.239 28.8935 168.071 28.4849C168.134 28.6075 168.598 28.7505 168.724 28.7914C169.041 28.8935 169.378 28.9753 169.716 28.9957Z" fill="black"/>
<path opacity="0.1" d="M156.873 16.8376L155.397 16.6537C155.144 16.6332 154.975 16.4085 154.996 16.1633L155.017 16.0407C155.038 15.7955 155.27 15.632 155.523 15.6524L157 15.8363C157.253 15.8568 157.421 16.0815 157.4 16.3267L157.379 16.4493C157.337 16.6945 157.105 16.858 156.873 16.8376Z" fill="black"/>
<path d="M163.537 29.8131L163.326 26.8501L164.633 26.7275L165.224 28.7096L165.814 28.3827L165.667 30.9369L164.338 31.2434L163.537 29.8131Z" fill="#EBCEB1"/>
<path d="M181.651 46.5484L170.348 42.7273L166.025 30.0787L163.41 30.8552L165.097 46.8754L177.856 54.5585L181.651 46.5484Z" fill="#7F789C"/>
<path d="M153.604 59.9735C154.111 59.9327 154.574 60.2596 154.828 60.6683C155.081 61.077 155.165 61.5878 155.207 62.0578C155.249 62.6504 155.249 63.2225 155.186 63.8151C155.144 64.1421 155.102 64.4894 154.933 64.796C154.764 65.082 154.448 65.3272 154.111 65.3272C153.879 65.3272 153.647 65.2251 153.436 65.1433C153.288 65.082 153.119 65.0003 153.035 64.8573C152.951 64.7346 152.951 64.5916 152.951 64.469C152.845 63.529 152.002 60.0757 153.604 59.9735Z" fill="white"/>
<path d="M154.638 61.0769C154.617 61.0156 154.574 60.9748 154.532 60.9135C154.406 60.75 154.195 60.5252 154.005 60.4639C154.005 60.4639 153.351 60.3209 153.52 60.4844L153.879 60.8317L152.402 60.8113L151.453 61.5469L151.538 63.0999L152.634 64.3055C153.52 64.1625 154.511 64.2238 154.806 63.2021C154.891 62.8956 154.891 62.5891 154.87 62.2621C154.828 61.8534 154.828 61.4243 154.638 61.0769Z" fill="#EAC5B0"/>
<path d="M142.491 43.5855C143.44 43.5447 144.41 43.5038 145.359 43.4629C145.401 42.7273 145.401 41.9917 145.338 41.2561C145.338 41.3378 146.877 40.5613 147.004 40.3774C147.383 39.8666 147.447 39.0083 147.594 38.3953C147.932 37.108 148.269 35.6367 147.552 34.4924C146.814 33.3073 145.232 32.8986 143.82 32.8577C142.027 32.8169 140.024 33.3277 139.096 34.7989C138.273 36.1476 139.307 38.1297 139.623 39.56C139.771 40.2548 140.003 41.0722 140.678 41.3582C141.036 41.5217 141.458 41.5013 141.795 41.726C142.365 42.1347 142.238 42.9725 142.491 43.5855Z" fill="#EAC5B0"/>
<path d="M136.291 32.2652C136.186 31.3048 136.08 30.3444 135.975 29.384C135.933 29.0366 135.891 28.6484 136.017 28.3214C136.207 27.7493 136.797 27.4019 137.409 27.2384C137.999 27.075 138.632 27.0749 139.222 26.9523C139.855 26.8093 140.488 26.5437 141.141 26.5641C142.386 26.6254 143.335 27.7288 144.579 27.9332C146.287 28.1988 147.847 27.4428 148.881 29.384C149.071 29.7518 149.113 30.1605 149.281 30.5283C149.492 30.9983 149.893 31.3865 150.188 31.7952C151.538 33.6751 151.095 36.5154 149.471 38.0888C148.67 38.8653 148.354 39.5601 147.257 39.8053C147.763 38.8245 147.088 34.8807 145.718 34.4516C145.359 34.329 144.262 34.7581 143.862 34.8194C142.976 34.942 142.112 35.085 141.268 35.412C140.024 35.9024 138.674 36.2702 137.325 36.3724C137.156 36.3928 136.966 36.3928 136.84 36.2906C136.713 36.1885 136.692 36.025 136.671 35.8615C136.565 34.6559 136.439 33.4503 136.291 32.2652Z" fill="#3B455A"/>
<path d="M135.574 46.9776C135.574 46.9776 126.823 57.8076 122.436 60.4435C122.162 60.4844 121.93 60.6683 121.762 60.8931C121.572 61.1792 121.466 61.5061 121.403 61.833C121.277 62.4052 121.213 62.9978 121.213 63.5699C121.213 64.0603 121.234 64.5508 121.445 65.0003C121.656 65.4294 122.099 65.7972 122.605 65.8177C123.28 65.8381 123.575 65.2046 123.702 64.4077C126.043 62.8547 132.369 58.6249 132.854 57.7258C133.465 56.6224 136.629 46.9572 136.629 46.9572H135.574V46.9776Z" fill="white"/>
<path d="M157.695 114.41L158.075 115.983L155.228 118.292L153.225 117.086L154.469 115.166L157.316 112.836L157.695 114.41Z" fill="#3B455A"/>
<path d="M151.158 66.0016L152.339 70.7627L150.842 92.8517L157.738 113.858L154.68 115.227L140.888 90.9718L139.244 83.2274L138.4 66.8394L151.158 66.0016Z" fill="#3B455A"/>
<path d="M132.031 67.8815L131.8 88.4176L135.785 114.9H138.864L140.804 90.461L145.001 66.0425L132.031 67.8815Z" fill="#3B455A"/>
<path d="M138.843 114.532V116.146L135.511 117.761L133.866 116.146L135.511 114.532H138.843Z" fill="#3B455A"/>
<path d="M154.806 71.8054C154.849 73.6853 154.785 76.1987 154.047 76.3009C153.9 76.3213 153.773 76.26 153.647 76.1783C152.36 75.504 151.453 74.5436 150.188 73.8897C148.86 73.1949 147.341 72.8271 145.865 72.5819C143.63 72.1937 141.373 71.9485 139.096 71.9076C137.303 71.8872 135.532 72.0302 133.74 72.1732C132.263 72.2958 130.893 72.7249 129.374 72.6228C127.835 72.5206 126.317 72.0711 124.988 71.2741C124.946 71.2537 124.883 71.2128 124.862 71.1515C124.84 71.0902 124.862 71.0289 124.883 70.9676C125.199 70.1298 125.431 69.3125 126 68.6177C126.633 67.8412 127.097 66.8604 127.561 65.9817C128.531 64.1427 129.438 62.2219 130.112 60.2603C131.125 57.6038 132.285 55.0087 133.276 52.3523C133.95 50.5133 134.583 48.6334 135.511 46.876C136.228 45.507 137.514 43.5044 139.075 42.8914C139.602 42.6871 140.171 42.6667 140.741 42.6462C142.449 42.6054 144.178 42.5441 145.886 42.5032C146.519 42.4828 147.173 42.4828 147.742 42.728C148.607 43.0958 149.071 43.9744 149.513 44.7918C151.411 48.429 152.613 52.3523 153.288 56.4187C153.647 58.5234 153.963 60.6485 154.216 62.7736C154.49 65.144 154.701 67.5347 154.743 69.9255C154.743 70.1707 154.785 70.9268 154.806 71.8054Z" fill="white"/>
<path d="M143.356 51.7183C143.292 52.6582 143.44 53.5982 143.567 54.5382C144.41 60.2392 145.254 65.9403 146.097 71.6413C141.479 71.6005 136.882 71.5596 132.263 71.5187C132.432 69.3732 132.601 67.248 132.77 65.1025C132.875 63.7334 132.98 62.3643 133.276 61.0157C133.761 58.8497 134.731 56.8063 135.68 54.7834C137.451 51.044 139.222 47.325 140.994 43.5856C141.078 43.3812 141.184 43.1769 141.373 43.0339C141.584 42.8704 141.858 42.8091 142.133 42.7682C143.461 42.5434 144.937 42.3595 146.266 42.5434C146.603 43.7082 145.38 45.7516 144.916 46.8346C144.262 48.4284 143.461 50.0018 143.356 51.7183Z" fill="#FF725E"/>
<path d="M151.39 79.9784H126.169C124.503 79.9784 123.175 78.6706 123.175 77.0768V60.6071C123.175 58.9928 124.524 57.7054 126.169 57.7054H151.39C153.056 57.7054 154.385 59.0132 154.385 60.6071V77.0768C154.406 78.6706 153.056 79.9784 151.39 79.9784Z" fill="#293651"/>
<path d="M145.633 56.4794C145.633 55.049 145.633 53.6391 145.633 52.2087C145.633 51.8205 145.254 51.4935 144.79 51.4935C141.247 51.4935 137.704 51.4935 134.161 51.4935C133.655 51.4935 133.149 51.4935 132.643 51.4935C132.179 51.4935 131.8 51.8205 131.8 52.2087C131.8 53.6391 131.8 55.049 131.8 56.4794C131.125 56.4998 130.576 57.0311 130.576 57.7054H134.71C134.71 57.0516 134.161 56.4998 133.487 56.4794C133.487 55.2942 133.487 54.1091 133.487 52.9239C136.755 52.9239 140.024 52.9239 143.271 52.9239C143.503 52.9239 143.714 52.9239 143.946 52.9239C143.946 54.1091 143.946 55.2942 143.946 56.4794H143.862C143.166 56.4794 142.597 57.0311 142.597 57.7054H146.73C146.709 57.072 146.245 56.5611 145.633 56.4794Z" fill="white"/>
<g opacity="0.12">
<path d="M151.749 75.5647C150.694 76.3412 149.471 76.8725 148.206 77.1994C146.413 77.649 144.6 77.9555 142.765 78.1394C136.249 78.8341 129.712 78.1598 123.196 77.9759L123.132 77.6898C123.132 78.7933 124.124 79.9784 125.262 79.9784H151.453C153.098 79.9784 154.427 78.6911 154.427 77.0972V72.847C153.647 73.8687 152.782 74.8086 151.749 75.5647Z" fill="black"/>
</g>
<path d="M146.013 66.5942C144.326 66.5942 142.639 66.5942 140.952 66.5942C140.783 66.5942 140.635 66.5942 140.467 66.5942C140.467 65.409 140.467 64.2034 140.467 63.0182C140.467 62.4256 140.467 61.8126 140.467 61.22C140.467 61.0157 140.298 60.8522 140.087 60.8522C139.033 60.8522 137.978 60.8522 136.945 60.8522C136.734 60.8522 136.565 61.0157 136.565 61.22C136.565 62.8548 136.565 64.4895 136.565 66.1242C136.565 66.2877 136.565 66.4307 136.565 66.5942C135.342 66.5942 134.098 66.5942 132.875 66.5942C132.263 66.5942 131.631 66.5942 131.019 66.5942C130.808 66.5942 130.64 66.7576 130.64 66.962C130.64 67.9837 130.64 69.0054 130.64 70.0066C130.64 70.1292 130.682 70.211 130.745 70.2723C130.808 70.3336 130.893 70.3744 131.019 70.3744C132.706 70.3744 134.393 70.3744 136.08 70.3744C136.249 70.3744 136.397 70.3744 136.565 70.3744C136.565 71.5596 136.565 72.7652 136.565 73.9504C136.565 74.543 136.565 75.156 136.565 75.7486C136.565 75.9529 136.734 76.1164 136.945 76.1164C137.999 76.1164 139.054 76.1164 140.087 76.1164C140.214 76.1164 140.298 76.0755 140.361 76.0142C140.424 75.9529 140.467 75.8712 140.467 75.7486C140.467 74.1138 140.467 72.4791 140.467 70.8444C140.467 70.681 140.467 70.5379 140.467 70.3744C141.69 70.3744 142.934 70.3744 144.157 70.3744C144.769 70.3744 145.401 70.3744 146.013 70.3744C146.224 70.3744 146.392 70.211 146.392 70.0066C146.392 68.9849 146.392 67.9632 146.392 66.962C146.413 66.7576 146.224 66.5942 146.013 66.5942Z" fill="white"/>
<path d="M121.698 64.5712C121.719 64.6325 121.741 64.6938 121.783 64.7347C121.888 64.8981 122.078 65.1434 122.268 65.2251C122.268 65.2251 122.921 65.4294 122.753 65.2455L122.436 64.8573L123.913 65.0208L124.925 64.3873L124.988 62.8343L124.018 61.5266C123.111 61.5879 122.141 61.4448 121.762 62.4256C121.656 62.7117 121.614 63.0387 121.593 63.3452C121.572 63.7743 121.53 64.2034 121.698 64.5712Z" fill="#EAC5B0"/>
<path d="M128.657 48.6736L130.977 47.141L130.344 46.1602L128.531 46.855L128.447 46.2624L126.633 47.7949L127.139 48.9188L128.657 48.6736Z" fill="#EAC5B0"/>
<path d="M127.055 47.0798L127.962 49.3479C128.088 49.7157 119.315 54.5177 118.535 54.8651C116.806 55.6211 113.706 57.4193 113.706 57.4193C111.323 57.4398 106.81 56.2546 105.313 55.6416C104.702 55.3964 104.28 54.0886 103.9 53.5778C103.436 52.9239 104.027 51.7591 104.427 51.2279C105.25 50.1244 106.515 49.3479 107.886 49.0823C108.371 48.9801 108.898 48.9597 109.383 49.0823C109.889 49.2253 110.522 46.998 110.944 47.2841C111.703 47.795 112.103 51.187 113.01 51.4731C114.107 51.8204 126.802 46.5485 127.055 47.0798Z" fill="#293651"/>
<path d="M109.025 36.7197C108.982 36.7197 108.919 36.7197 108.877 36.7197C106.41 36.8423 103.436 39.9687 101.707 41.8078C97.2575 46.5689 94.1365 52.0452 91.8168 58.1549C90.5726 61.4448 89.4549 64.7959 88.4216 68.1471C88.1264 69.0666 86.1231 77.5671 85.638 77.6284C90.657 77.0154 95.697 76.525 100.674 76.8519C105.672 77.1789 110.627 78.364 114.908 80.9183C117.101 70.0066 118.725 58.7271 119.252 47.6723C119.315 46.3441 119.526 44.9955 119.4 43.6673C119.252 42.1551 118.472 41.4808 117.607 40.3161C117.312 39.9279 117.017 39.5192 116.637 39.1922C114.676 37.5371 111.597 36.638 109.025 36.7197Z" fill="#293651"/>
<path d="M91.5427 73.7664L96.7514 94.2616L96.8779 109.383L99.4085 109.914L100.4 95.8554L102.867 70.1292L91.5427 73.7664Z" fill="#EBCEB1"/>
<path d="M99.4295 110.343L99.8513 111.876L99.4928 114.879H97.4262L96.667 110.527L96.899 109.812L99.4295 110.343Z" fill="#3B455A"/>
<path d="M111.45 71.4983L111.914 89.2145L109.467 114.246L106.958 114.409L106.072 91.4826L100.99 70.6809L111.45 71.4983Z" fill="#EBCEB1"/>
<path d="M109.383 113.817L112.757 115.554L112.483 117.086L106.536 116.371L106.831 114.185L109.383 113.817Z" fill="#3B455A"/>
<path d="M112.188 73.7869L113.875 94.2617L112.146 108.3L105.376 107.932L104.174 91.9731L101.243 74.5634L101.707 71.8661L111.45 71.9887L112.188 73.7869Z" fill="#293651"/>
<path d="M101.918 92.77L101.117 107.442L95.233 107.155L95.3596 93.2399L91.6481 75.7485L92.4916 70.8648L102.382 71.4574L101.918 92.77Z" fill="#293651"/>
<path d="M113.411 75.4828C107.38 74.4816 97.5949 72.0295 91.5638 71.0282C94.7269 60.8726 99.7459 49.5726 105.608 40.643C106.663 39.0287 107.991 37.3327 109.91 36.9445C111.956 36.5358 115.52 37.8436 115.92 40.0504C116.49 43.279 115.288 47.7336 114.929 51.003C114.065 58.4001 114.866 68.1675 113.411 75.4828Z" fill="#DE8F8F"/>
<path d="M112.356 29.8131C114.634 25.9919 119.653 28.4644 119.99 32.306C120.201 34.8194 117.671 37.5984 115.056 37.8027C114.992 38.4157 114.929 39.0083 114.824 39.6213C114.17 39.4374 113.495 39.274 112.841 39.0901C112.631 39.0288 112.399 38.947 112.335 38.7631C112.293 38.6405 112.335 38.5179 112.356 38.3953C112.483 37.9866 112.588 37.5984 112.715 37.1897C112.673 37.1693 112.631 37.1284 112.588 37.0875C111.492 36.2906 111.007 34.8807 111.07 33.5525C111.112 32.2243 111.682 30.9574 112.356 29.8131Z" fill="#EAC5B0"/>
<path d="M112.504 31.1004C111.407 32.1221 111.302 33.7568 111.239 35.1463C111.175 36.3928 110.986 37.1284 109.615 36.781C108.856 36.5767 107.485 36.2497 107.148 35.4324C106.895 34.8194 107.801 33.7568 108.286 33.389C108.645 33.1234 109.193 33.1642 109.552 32.8781C109.699 32.7555 109.805 32.5921 109.889 32.4286C110.269 31.7747 110.522 31.0595 110.69 30.3035C110.796 29.7926 110.838 29.2818 111.049 28.8118C111.344 28.1375 112.23 27.6062 112.82 27.1362C113.896 26.2576 116.342 25.5832 117.207 27.1567C117.418 27.5245 117.396 27.9536 117.375 28.3418C117.354 28.587 117.333 28.8322 117.228 29.057C116.764 29.9152 115.878 29.6496 115.098 29.7722C114.128 29.9765 113.2 30.4465 112.504 31.1004Z" fill="#3B455A"/>
<path d="M118.83 34.5946C118.556 35.2281 117.86 35.7389 117.924 36.4132C117.945 36.7197 118.135 36.9854 118.261 37.2714C118.598 38.0479 118.493 38.9879 117.966 39.6622C119.252 40.2548 120.539 40.8474 121.804 41.44C121.994 41.5217 122.204 41.6239 122.415 41.6034C122.879 41.583 123.153 41.113 123.343 40.7043C123.723 39.9074 124.102 39.0492 123.934 38.191C123.849 37.8027 123.66 37.4145 123.596 37.0262C123.238 35.1054 125.6 33.2868 124.883 31.4682C124.566 30.6509 123.702 30.1809 123.132 29.5066C122.141 28.3418 121.994 26.6254 120.918 25.5219C118.894 23.4377 114.908 25.1541 115.203 28.0353C115.435 30.4056 119.948 32.0404 118.83 34.5946Z" fill="#3B455A"/>
<path d="M108.687 37.3328C108.687 37.3328 98.2486 61.7309 100.547 67.9428C102.846 74.1751 103.921 76.5659 103.921 76.5659L87.9366 77.2198C87.9577 77.2198 98.1432 41.583 108.687 37.3328Z" fill="#293651"/>
<path d="M114.212 8.54138H71.0241V64.3873H114.212V8.54138Z" fill="#3B455A"/>
<path opacity="0.26" d="M74.2506 61.976H74.8832L113.031 63.1203L112.04 10.3191L110.269 10.8095L74.2506 61.976Z" fill="black"/>
<path d="M112.019 10.3191H73.1962V61.976H112.019V10.3191Z" fill="white"/>
<path d="M97.5949 5.39454H97.3418V5.23107C97.3418 3.61679 95.8024 2.30902 93.8834 2.30902H91.374C89.455 2.30902 87.9155 3.61679 87.9155 5.23107V5.39454H87.6625C85.7435 5.39454 84.2041 6.70231 84.2041 8.31659V11.5656H101.074V8.31659C101.053 6.70231 99.4928 5.39454 97.5949 5.39454ZM94.8324 5.45584H90.3828C89.9189 5.45584 89.5604 5.08803 89.5604 4.65892C89.5604 4.20937 89.94 3.862 90.3828 3.862H94.8324C95.2963 3.862 95.6548 4.22981 95.6548 4.65892C95.6548 5.10847 95.2963 5.45584 94.8324 5.45584Z" fill="#BCBEC0"/>
<path d="M101.053 10.033H84.183V11.5656H101.053V10.033Z" fill="#BCBEC0"/>
<path d="M107.443 29.2001H78.2573V29.958H107.443V29.2001Z" fill="#BCBEC0"/>
<path d="M107.443 34.799H78.2573V35.5569H107.443V34.799Z" fill="#BCBEC0"/>
<path d="M107.443 40.3979H78.2573V41.1558H107.443V40.3979Z" fill="#BCBEC0"/>
<path d="M107.443 46.0172H78.2573V46.7751H107.443V46.0172Z" fill="#BCBEC0"/>
<path d="M88.9699 57.3784H78.2362V57.6441H88.9699V57.3784Z" fill="#BCBEC0"/>
<path d="M104.048 52.6173C103.521 52.4334 102.951 52.4743 102.466 52.7195C102.403 52.6786 102.319 52.6582 102.234 52.6173C101.454 52.3313 100.568 52.5765 100.041 53.2099C99.535 53.8229 99.4717 54.6812 99.8724 55.3555C100.294 56.0298 101.117 56.3976 101.918 56.2546C102.108 56.2137 102.298 56.1524 102.445 56.0707C102.825 56.2546 103.268 56.3363 103.71 56.2546C104.638 56.0911 105.271 55.2942 105.292 54.3951C105.313 53.5982 104.807 52.883 104.048 52.6173ZM102.129 55.8868C101.496 56.1115 100.758 55.9276 100.315 55.4168C99.8724 54.9059 99.8091 54.1499 100.168 53.5777C100.526 53.0056 101.222 52.6991 101.897 52.8217C101.981 52.8421 102.066 52.8625 102.15 52.9034C102.044 52.9851 101.939 53.0873 101.834 53.1895C101.327 53.8025 101.264 54.6607 101.665 55.335C101.791 55.5394 101.939 55.7028 102.129 55.8459C102.15 55.8663 102.15 55.8868 102.129 55.8868ZM103.204 54.3951C103.183 54.9264 102.909 55.4372 102.466 55.7233C102.34 55.6415 102.213 55.5394 102.108 55.4168C101.665 54.9059 101.602 54.1499 101.96 53.5777C102.087 53.3734 102.255 53.1895 102.466 53.0669C102.909 53.3529 103.204 53.8434 103.204 54.3951ZM103.921 55.8868C103.542 56.0094 103.141 56.0094 102.783 55.8663C103.225 55.5189 103.5 54.9672 103.521 54.3951C103.5 53.8025 103.225 53.2712 102.783 52.9238C103.057 52.8217 103.373 52.7808 103.689 52.8421C104.448 52.9851 104.997 53.639 104.997 54.3951C104.997 55.049 104.575 55.662 103.921 55.8868Z" fill="#BCBEC0"/>
<path d="M78.5314 16.061H79.0164V19.8822H78.5314V16.061Z" fill="#3B455A"/>
<path d="M82.5592 16.061H83.0442V19.8822H82.517L80.6402 16.8375V19.8822H80.1552V16.061H80.6824L82.5592 19.1261V16.061Z" fill="#3B455A"/>
<path d="M86.2918 18.2067C86.4394 18.3497 86.5237 18.5949 86.5237 18.9014C86.5237 19.208 86.4183 19.4736 86.1863 19.6779C85.9543 19.8823 85.638 19.9844 85.2163 19.9844C84.7945 19.9844 84.4782 19.9027 84.2673 19.7188C84.0775 19.5553 83.951 19.3101 83.8877 18.9832L84.2673 18.9219C84.3306 19.3919 84.6258 19.6166 85.153 19.6166C85.7435 19.6166 86.0387 19.3919 86.0387 18.9423C86.0387 18.738 85.9754 18.5949 85.87 18.5132C85.7646 18.411 85.5748 18.3293 85.3217 18.268L84.9632 18.1658C84.5836 18.0637 84.3306 17.9411 84.183 17.798C84.0353 17.655 83.951 17.4098 83.951 17.1033C83.951 16.7968 84.0564 16.5311 84.2673 16.3268C84.4782 16.1224 84.7945 16.0203 85.2163 16.0203C85.638 16.0203 85.9333 16.102 86.123 16.2859C86.3128 16.4494 86.4394 16.6946 86.4815 17.0215L86.102 17.0828C86.0387 16.6128 85.7646 16.3881 85.2795 16.3881C84.7102 16.3881 84.436 16.6128 84.436 17.0624C84.436 17.2667 84.4782 17.4098 84.5836 17.4915C84.6891 17.5937 84.8578 17.6754 85.0897 17.7367L85.4693 17.8389C85.87 17.9206 86.1441 18.0637 86.2918 18.2067Z" fill="#3B455A"/>
<path d="M89.6447 16.061H90.1298V18.6357C90.1298 18.8605 90.1087 19.0648 90.0454 19.2487C89.9821 19.4122 89.9189 19.5552 89.8345 19.637C89.7502 19.7391 89.6447 19.8004 89.4971 19.8617C89.3706 19.923 89.2441 19.9435 89.1175 19.9639C89.0121 19.9843 88.8645 19.9843 88.7169 19.9843C88.5693 19.9843 88.4427 19.9843 88.3162 19.9639C88.2108 19.9435 88.0842 19.923 87.9577 19.8617C87.8312 19.8004 87.7257 19.7391 87.6414 19.637C87.557 19.5348 87.4938 19.4122 87.4305 19.2487C87.3672 19.0853 87.3462 18.8809 87.3462 18.6357V16.061H87.8312V18.6153C87.8312 19.024 87.9366 19.2896 88.1264 19.4326C88.2318 19.4939 88.3162 19.5348 88.4216 19.5552C88.506 19.5757 88.6325 19.5961 88.759 19.5961C88.8856 19.5961 88.991 19.5757 89.0965 19.5552C89.1808 19.5348 89.2862 19.4939 89.3917 19.4326C89.5815 19.31 89.6869 19.024 89.6869 18.6153V16.061H89.6447Z" fill="#3B455A"/>
<path d="M91.1841 16.061H92.3862C92.6181 16.061 92.829 16.1019 92.9977 16.1632C93.1664 16.2245 93.2929 16.3267 93.3773 16.4288C93.5249 16.6536 93.6093 16.8988 93.6093 17.1849C93.6093 17.7366 93.3773 18.084 92.9344 18.227C93.0399 18.2883 93.1242 18.4109 93.1875 18.5744L93.778 19.8822H93.2718L92.7236 18.6357C92.6603 18.5131 92.597 18.4314 92.5127 18.3701C92.4283 18.3292 92.3018 18.2883 92.1542 18.2883H91.6903V19.8617H91.2052V16.061H91.1841ZM91.6692 17.9614H92.3651C92.6181 17.9614 92.829 17.8797 92.9344 17.7366C93.061 17.5936 93.1242 17.4097 93.1242 17.2053C93.1242 16.9806 93.061 16.8171 92.9344 16.6741C92.8079 16.531 92.6181 16.4493 92.3651 16.4493H91.6692V17.9614Z" fill="#3B455A"/>
<path d="M95.465 16.061H96.0977L97.384 19.8822H96.9201L96.5405 18.7379H95.0433L94.6637 19.8822H94.1997L95.465 16.061ZM95.7813 16.4901L95.1487 18.3905H96.414L95.7813 16.4901Z" fill="#3B455A"/>
<path d="M100.463 16.061H100.948V19.8822H100.421L98.5438 16.8375V19.8822H98.0588V16.061H98.586L100.463 19.1261V16.061Z" fill="#3B455A"/>
<path d="M103.436 16.3676C103.099 16.3676 102.846 16.4493 102.677 16.6332C102.529 16.7967 102.445 17.0419 102.403 17.4097C102.382 17.5527 102.382 17.7366 102.382 17.9614C102.382 18.1862 102.382 18.3701 102.403 18.5336C102.424 18.697 102.445 18.8401 102.487 18.9831C102.529 19.1261 102.593 19.2283 102.677 19.31C102.846 19.494 103.099 19.5757 103.436 19.5757C103.985 19.5757 104.28 19.2896 104.301 18.7175L104.68 18.7379C104.659 19.1261 104.554 19.4327 104.343 19.637C104.153 19.8413 103.837 19.9639 103.415 19.9639C102.825 19.9639 102.424 19.78 102.192 19.4327C102.087 19.2487 102.002 19.0444 101.96 18.8196C101.918 18.5949 101.897 18.3088 101.897 17.9818C101.897 17.6549 101.918 17.3688 101.96 17.1441C102.002 16.9193 102.087 16.7149 102.192 16.531C102.403 16.1837 102.825 15.9998 103.415 15.9998C103.816 15.9998 104.111 16.0815 104.301 16.2654C104.491 16.4289 104.617 16.6945 104.659 17.001L104.28 17.0623C104.195 16.6128 103.921 16.3676 103.436 16.3676Z" fill="#3B455A"/>
<path d="M105.545 16.061H107.654V16.4288H106.03V17.7775H107.548V18.1453H106.03V19.5348H107.759V19.9026H105.545V16.061Z" fill="#3B455A"/>
<path d="M86.6081 24.7659H85.9122V26.1963H85.4272V22.3751H86.587C87.4094 22.3751 87.8101 22.7838 87.8101 23.5807C87.8312 24.3776 87.4305 24.7659 86.6081 24.7659ZM85.9333 24.3981H86.587C87.0931 24.3981 87.3672 24.112 87.3672 23.5603C87.3672 23.0086 87.1142 22.7225 86.587 22.7225H85.9333V24.3981Z" fill="#3B455A"/>
<path d="M91.2685 25.6854C91.1631 25.8693 90.9944 26.0124 90.7835 26.1146C90.5726 26.2167 90.3195 26.2576 90.0032 26.2576C89.708 26.2576 89.4339 26.2167 89.2441 26.1146C89.0332 26.0124 88.8856 25.8693 88.759 25.6854C88.6536 25.5015 88.5692 25.2972 88.5271 25.0724C88.4849 24.8476 88.4638 24.6024 88.4638 24.3368C88.4638 24.0712 88.4849 23.8464 88.506 23.6625C88.5271 23.4786 88.5692 23.2947 88.6536 23.1108C88.7169 22.9269 88.8223 22.7838 88.9277 22.6817C89.1808 22.4364 89.5393 22.3138 90.0243 22.3138C90.6359 22.3138 91.0576 22.5182 91.2685 22.9064C91.3739 23.0903 91.4583 23.2947 91.5005 23.5194C91.5426 23.7442 91.5637 24.0099 91.5637 24.2959C91.5637 24.6024 91.5426 24.8476 91.5005 25.0724C91.4583 25.2972 91.3739 25.5015 91.2685 25.6854ZM90.0454 25.8898C90.2352 25.8898 90.4039 25.8489 90.5515 25.7672C90.6991 25.6854 90.8046 25.5628 90.8889 25.4198C90.9733 25.2768 91.0154 25.0929 91.0576 24.909C91.0998 24.725 91.0998 24.5207 91.0998 24.2755C91.0998 24.0303 91.0787 23.826 91.0576 23.642C91.0154 23.4581 90.9733 23.2947 90.8889 23.1312C90.7202 22.8247 90.4461 22.6612 90.0243 22.6612C89.6869 22.6612 89.4338 22.7634 89.2651 22.9677C89.0543 23.2129 88.9488 23.6625 88.9488 24.2755C88.9488 24.8885 89.0543 25.3176 89.2651 25.5833C89.4338 25.7876 89.6869 25.8898 90.0454 25.8898Z" fill="#3B455A"/>
<path d="M92.5549 26.1963V22.3751H93.0399V25.8285H94.5161V26.1963H92.5549Z" fill="#3B455A"/>
<path d="M95.1487 22.3751H95.6337V26.1963H95.1487V22.3751Z" fill="#3B455A"/>
<path d="M98.1221 22.6612C97.7847 22.6612 97.5316 22.7429 97.3629 22.9268C97.2153 23.0903 97.131 23.3355 97.0888 23.7033C97.0677 23.8464 97.0677 24.0303 97.0677 24.2551C97.0677 24.4798 97.0677 24.6637 97.0888 24.8272C97.1099 24.9907 97.131 25.1337 97.1731 25.2767C97.2153 25.4198 97.2786 25.522 97.3629 25.6037C97.5316 25.7876 97.7847 25.8693 98.1221 25.8693C98.6704 25.8693 98.9656 25.5833 98.9867 25.0111L99.3663 25.0315C99.3452 25.4198 99.2398 25.7263 99.0289 25.9306C98.8391 26.135 98.5228 26.2576 98.101 26.2576C97.5105 26.2576 97.1099 26.0737 96.8779 25.7263C96.7725 25.5424 96.6881 25.338 96.6459 25.1133C96.6038 24.8885 96.5827 24.6024 96.5827 24.2755C96.5827 23.9485 96.6038 23.6625 96.6459 23.4377C96.6881 23.2129 96.7725 23.0086 96.8779 22.8247C97.0888 22.4773 97.5105 22.2934 98.101 22.2934C98.5017 22.2934 98.7969 22.3751 98.9867 22.559C99.1765 22.7225 99.303 22.9881 99.3452 23.2947L98.9656 23.356C98.9023 22.9064 98.6071 22.6612 98.1221 22.6612Z" fill="#3B455A"/>
<path d="M101.391 26.1963H100.906V24.8681L99.6826 22.3751H100.168L101.138 24.4185L102.108 22.3751H102.593L101.37 24.8681V26.1963H101.391Z" fill="#3B455A"/>
</g>
<defs>
<clipPath id="clip0_1_8773">
<rect width="195" height="118.844" fill="white"/>
</clipPath>
</defs>
</svg>
