<svg width="73" height="64" viewBox="0 0 73 64" fill="none" xmlns="http://www.w3.org/2000/svg">
<g clip-path="url(#clip0_0_6)">
<path fill-rule="evenodd" clip-rule="evenodd" d="M15.5825 12.6299C14.8981 14.5934 13.8979 16.4508 12.4765 18.0959C11.4237 19.3165 10.1602 20.4309 8.73884 21.1739C8.2124 21.4923 7.68596 21.7576 7.10688 22.0229C7.21217 25.207 7.52803 28.338 8.26504 31.3098C8.73884 33.1672 9.37056 35.0246 10.2129 36.7758C11.0552 38.5801 12.0554 40.3314 13.2135 42.0296C14.3717 43.7808 15.5825 45.479 16.8459 47.2302C18.1094 48.9815 19.3728 50.7858 20.5836 52.5901C23.0579 56.1987 25.2163 60.0196 26.9535 63.9997C24.1108 60.7095 21.2154 57.5785 18.2147 54.5536C17.145 53.4368 16.0475 52.3479 14.9425 51.2514C13.0021 49.3262 11.0383 47.3776 9.15998 45.2136C7.68596 43.5155 6.26459 41.7112 5.05378 39.6946C3.84298 37.678 2.79011 35.5022 2.0531 33.2733C0.526436 28.8156 0 24.0926 0 19.5818V16.8223L2.68482 16.0793C4.4747 15.6548 5.94872 14.7526 7.10688 13.4259C8.26504 12.0992 9.0547 10.2949 9.47585 8.3314L10.0549 5.5188L15.5299 4.45744C25.7954 2.44085 36.3767 2.44085 46.6422 4.45744L52.1171 5.5188L52.6962 8.3314C53.1174 10.2949 53.907 12.0992 55.0652 13.4259C55.1957 13.5904 55.3313 13.7472 55.4719 13.8965L50.1643 18.6144C50.0039 18.445 49.8475 18.2721 49.6955 18.0959C48.2742 16.4508 47.2739 14.5404 46.5896 12.6299C36.3767 10.6133 25.848 10.6133 15.5825 12.6299ZM53.8544 31.3629C54.2229 30.0362 54.4861 28.6564 54.644 27.2236L62.1194 17.353V19.5818C62.1194 24.0926 61.593 28.7626 60.0663 33.2733C59.3293 35.5022 58.2764 37.678 57.0656 39.6946C55.8548 41.7112 54.4335 43.5155 52.9594 45.2136C51.0429 47.4216 49.0597 49.4053 47.082 51.3834C46.0175 52.4481 44.9547 53.5111 43.9047 54.6067C40.9041 57.6315 38.0087 60.7626 35.1659 64.0528C36.9558 60.0727 39.1142 56.2518 41.5358 52.6432C42.7465 50.7859 44.0099 49.0347 45.2733 47.2836L45.2735 47.2833C46.5369 45.532 47.7477 43.7808 48.9059 42.0826C50.064 40.3314 51.0643 38.5801 51.9066 36.8289C52.7489 35.0777 53.3806 33.2203 53.8544 31.3629Z" fill="#293651"/>
<path d="M54.644 27.2238C54.4861 28.6567 54.2229 30.0364 53.8544 31.3631C53.3806 33.2205 52.7489 35.0779 51.9066 36.8292C51.0643 38.5804 50.064 40.3316 48.9059 42.0829C47.7477 43.7811 46.5369 45.5323 45.2735 47.2835C44.01 49.0348 42.7466 50.786 41.5358 52.6434C39.1142 56.252 36.9558 60.0729 35.1659 64.053C38.0087 60.7628 40.9041 57.6318 43.9047 54.6069C46.9054 51.4759 50.0114 48.6102 52.9594 45.2139C54.4335 43.5157 55.8548 41.7114 57.0656 39.6948C58.2764 37.6782 59.3293 35.5025 60.0663 33.2736C61.593 28.7628 62.1194 24.0928 62.1194 19.5821V17.3532L54.644 27.2238Z" fill="url(#paint0_linear_0_6)"/>
<path d="M32.7963 19.9536L33.6913 19.7413V34.2819L31.0591 36.7761L28.4796 35.3963V25.4196C28.4796 22.8192 30.2695 20.5373 32.7963 19.9536ZM19.0564 29.1874L15.6345 28.6567L19.0564 30.461L24.2681 33.1675V24.0929L23.3731 24.3051C21.0042 24.8358 19.3196 26.7993 19.0564 29.1874ZM45.5887 22.7131L43.1671 23.8275V15.3367L42.2722 15.5489C39.7453 16.1327 37.9554 18.4146 37.9554 21.068V30.0895L43.1671 25.0481L45.5887 22.7131Z" fill="#FFBA00"/>
<path d="M15.5819 32.4245L31.0591 54.8192L72.9108 0L31.0591 40.4909L15.5819 32.4245Z" fill="#00A78E"/>
<path d="M15.5819 32.4245L31.0591 54.8192L72.9108 0L31.0591 40.4909L15.5819 32.4245Z" fill="url(#paint1_linear_0_6)" fill-opacity="0.4"/>
</g>
<defs>
<linearGradient id="paint0_linear_0_6" x1="31.0764" y1="99.5693" x2="31.0764" y2="7.64505" gradientUnits="userSpaceOnUse">
<stop stop-color="#7B728C"/>
<stop offset="0.1533" stop-color="#807892" stop-opacity="0.8467"/>
<stop offset="0.3622" stop-color="#9087A4" stop-opacity="0.6378"/>
<stop offset="0.6031" stop-color="#A9A1C0" stop-opacity="0.3969"/>
<stop offset="0.866" stop-color="#CDC4E8" stop-opacity="0.134"/>
<stop offset="1" stop-color="#E1D9FF" stop-opacity="0"/>
</linearGradient>
<linearGradient id="paint1_linear_0_6" x1="47.6689" y1="69.8363" x2="44.5677" y2="21.9813" gradientUnits="userSpaceOnUse">
<stop stop-color="#7B728C"/>
<stop offset="1" stop-color="#E1D9FF" stop-opacity="0"/>
</linearGradient>
<clipPath id="clip0_0_6">
<rect width="72.2905" height="63.455" fill="white" transform="scale(1.00859)"/>
</clipPath>
</defs>
</svg>
