<svg width="240" height="64" viewBox="0 0 240 64" fill="none" xmlns="http://www.w3.org/2000/svg">
<g clip-path="url(#clip0_0_57)">
<path fill-rule="evenodd" clip-rule="evenodd" d="M15.4498 12.5224C14.7713 14.4692 13.7796 16.3107 12.3703 17.9418C11.3264 19.152 10.0737 20.2569 8.66442 20.9935C8.14247 21.3092 7.62051 21.5723 7.04637 21.8354C7.15076 24.9924 7.46393 28.0967 8.19466 31.0432C8.66442 32.8848 9.29076 34.7263 10.1259 36.4627C10.961 38.2516 11.9527 39.9879 13.101 41.6717C14.2493 43.408 15.4498 45.0917 16.7025 46.828C17.9552 48.5644 19.2079 50.3533 20.4084 52.1423C22.8615 55.7202 25.0016 59.5085 26.724 63.4547C23.9055 60.1925 21.0347 57.0882 18.0596 54.0891C16.999 52.9817 15.9109 51.9021 14.8153 50.815C12.8914 48.9061 10.9443 46.9742 9.08198 44.8286C7.62051 43.1449 6.21124 41.356 5.01075 39.3566C3.81026 37.3571 2.76635 35.1999 2.03562 32.99C0.521953 28.5703 0 23.8874 0 19.4151V16.679L2.66196 15.9424C4.4366 15.5215 5.89807 14.627 7.04637 13.3116C8.19466 11.9962 8.97759 10.2072 9.39515 8.26045L9.9693 5.4718L15.3976 4.41948C25.5757 2.42007 36.067 2.42007 46.245 4.41948L51.6734 5.4718L52.2475 8.26045C52.6651 10.2072 53.448 11.9962 54.5963 13.3116C54.7257 13.4746 54.8601 13.6301 54.9995 13.7782L49.7372 18.4559C49.5781 18.2879 49.4231 18.1165 49.2724 17.9418C47.8631 16.3107 46.8714 14.4165 46.1928 12.5224C36.067 10.5229 25.6279 10.5229 15.4498 12.5224ZM53.3958 31.0958C53.7612 29.7804 54.0221 28.4124 54.1787 26.9918L61.5905 17.2052V19.4151C61.5905 23.8874 61.0685 28.5176 59.5548 32.99C58.8241 35.1999 57.7802 37.3571 56.5797 39.3566C55.3792 41.356 53.9699 43.1449 52.5085 44.8286C50.6083 47.0178 48.6419 48.9846 46.681 50.9459C45.6257 52.0015 44.5719 53.0555 43.5309 54.1417C40.5558 57.1408 37.685 60.2451 34.8665 63.5073C36.6411 59.5611 38.7811 55.7728 41.1821 52.1949C42.3825 50.3534 43.6351 48.6172 44.8878 46.8809L44.888 46.8807C46.1406 45.1443 47.3411 43.408 48.4894 41.7243C49.6377 39.988 50.6294 38.2516 51.4646 36.5153C52.2997 34.779 52.926 32.9374 53.3958 31.0958Z" fill="#293651"/>
<path d="M54.1787 26.992C54.0221 28.4127 53.7612 29.7807 53.3958 31.0961C52.926 32.9376 52.2997 34.7792 51.4646 36.5155C50.6294 38.2519 49.6377 39.9882 48.4894 41.7245C47.3411 43.4082 46.1406 45.1446 44.888 46.8809C43.6353 48.6172 42.3826 50.3536 41.1821 52.1951C38.7811 55.773 36.6411 59.5614 34.8665 63.5076C37.685 60.2454 40.5558 57.141 43.5309 54.1419C46.506 51.0376 49.5855 48.1963 52.5085 44.8289C53.9699 43.1452 55.3792 41.3562 56.5797 39.3568C57.7802 37.3574 58.8241 35.2001 59.5548 32.9903C61.0685 28.5179 61.5905 23.8877 61.5905 19.4153V17.2054L54.1787 26.992Z" fill="url(#paint0_linear_0_57)"/>
<path d="M32.5171 19.7837L33.4044 19.5732V33.99L30.7946 36.463L28.2371 35.0949V25.2031C28.2371 22.6249 30.0117 20.3624 32.5171 19.7837ZM18.8941 28.9389L15.5014 28.4127L18.8941 30.2016L24.0614 32.8851V23.8877L23.1741 24.0982C20.8253 24.6243 19.1551 26.5711 18.8941 28.9389ZM45.2005 22.5197L42.7995 23.6246V15.2061L41.9122 15.4165C39.4069 15.9953 37.6322 18.2578 37.6322 20.8886V29.8333L42.7995 24.8348L45.2005 22.5197Z" fill="#FFBA00"/>
<path d="M15.4492 32.1484L30.7946 54.3524L72.2899 0L30.7946 40.1461L15.4492 32.1484Z" fill="#00A78E"/>
<path d="M15.4492 32.1484L30.7946 54.3524L72.2899 0L30.7946 40.1461L15.4492 32.1484Z" fill="url(#paint1_linear_0_57)" fill-opacity="0.4"/>
</g>
<path d="M87.2689 18.812C87.1958 18.0757 86.8825 17.5037 86.3287 17.096C85.775 16.6883 85.0235 16.4844 84.0742 16.4844C83.4292 16.4844 82.8846 16.5757 82.4404 16.7583C81.9962 16.9347 81.6554 17.1812 81.4181 17.4976C81.1869 17.814 81.0712 18.173 81.0712 18.5746C81.0591 18.9093 81.129 19.2014 81.2812 19.4509C81.4394 19.7004 81.6554 19.9164 81.9292 20.0989C82.2031 20.2754 82.5195 20.4306 82.8785 20.5645C83.2375 20.6922 83.6209 20.8018 84.0286 20.893L85.708 21.2947C86.5234 21.4772 87.2719 21.7206 87.9534 22.0249C88.635 22.3291 89.2252 22.7034 89.7242 23.1476C90.2232 23.5918 90.6096 24.1151 90.8834 24.7175C91.1633 25.3199 91.3063 26.0106 91.3124 26.7895C91.3063 27.9335 91.0142 28.9253 90.4361 29.7651C89.8641 30.5987 89.0366 31.2468 87.9534 31.7092C86.8764 32.1656 85.5772 32.3938 84.056 32.3938C82.5469 32.3938 81.2325 32.1626 80.1128 31.7001C78.9993 31.2376 78.1291 30.5531 77.5023 29.6464C76.8817 28.7336 76.5561 27.6049 76.5257 26.2601H80.3502C80.3928 26.8868 80.5723 27.4101 80.8887 27.83C81.2112 28.2438 81.6402 28.5572 82.1757 28.7702C82.7172 28.977 83.3288 29.0805 84.0103 29.0805C84.6797 29.0805 85.2608 28.9831 85.7537 28.7884C86.2527 28.5937 86.6391 28.3229 86.9129 27.9761C87.1867 27.6292 87.3236 27.2306 87.3236 26.7803C87.3236 26.3605 87.1989 26.0075 86.9494 25.7215C86.706 25.4355 86.347 25.1921 85.8723 24.9913C85.4038 24.7905 84.8288 24.608 84.1472 24.4437L82.1118 23.9325C80.5357 23.5492 79.2914 22.9498 78.3786 22.1344C77.4658 21.319 77.0125 20.2206 77.0186 18.8393C77.0125 17.7075 77.3137 16.7187 77.9222 15.8729C78.5368 15.0271 79.3796 14.3668 80.4506 13.8922C81.5215 13.4176 82.7385 13.1802 84.1016 13.1802C85.489 13.1802 86.6999 13.4176 87.7344 13.8922C88.7749 14.3668 89.5842 15.0271 90.1623 15.8729C90.7404 16.7187 91.0386 17.6984 91.0568 18.812H87.2689Z" fill="#20A899"/>
<path d="M93.9708 13.4358H98.8449L103.993 25.9954H104.212L109.36 13.4358H114.234V32.1291H110.4V19.962H110.245L105.408 32.0378H102.797L97.9596 19.9164H97.8044V32.1291H93.9708V13.4358Z" fill="#20A899"/>
<path d="M120.712 32.1291H116.477L122.93 13.4358H128.024L134.468 32.1291H130.232L125.55 17.7075H125.404L120.712 32.1291ZM120.448 24.7814H130.451V27.8665H120.448V24.7814Z" fill="#20A899"/>
<path d="M136.718 32.1291V13.4358H144.093C145.504 13.4358 146.709 13.6883 147.707 14.1934C148.711 14.6924 149.475 15.4013 149.998 16.3201C150.528 17.2329 150.792 18.3069 150.792 19.5422C150.792 20.7835 150.525 21.8514 149.989 22.7459C149.454 23.6344 148.678 24.3159 147.662 24.7905C146.651 25.2652 145.428 25.5025 143.992 25.5025H139.054V22.3261H143.353C144.108 22.3261 144.735 22.2226 145.234 22.0157C145.733 21.8089 146.104 21.4985 146.347 21.0847C146.597 20.6709 146.721 20.1568 146.721 19.5422C146.721 18.9215 146.597 18.3982 146.347 17.9722C146.104 17.5463 145.73 17.2238 145.224 17.0047C144.726 16.7795 144.096 16.667 143.335 16.667H140.67V32.1291H136.718ZM146.813 23.6222L151.459 32.1291H147.096L142.55 23.6222H146.813Z" fill="#20A899"/>
<path d="M152.873 16.6944V13.4358H168.226V16.6944H162.503V32.1291H158.596V16.6944H152.873Z" fill="#20A899"/>
<path d="M170.042 16.6944V13.4358H185.395V16.6944H179.672V32.1291H175.765V16.6944H170.042Z" fill="#20A899"/>
<path d="M187.923 32.1291V13.4358H200.519V16.6944H191.876V21.1486H199.871V24.4072H191.876V28.8706H200.556V32.1291H187.923Z" fill="#20A899"/>
<path d="M220.155 19.9803H216.157C216.084 19.4631 215.935 19.0036 215.71 18.602C215.485 18.1943 215.196 17.8475 214.843 17.5615C214.49 17.2755 214.082 17.0564 213.62 16.9043C213.163 16.7522 212.667 16.6761 212.132 16.6761C211.164 16.6761 210.322 16.9165 209.604 17.3972C208.886 17.8718 208.329 18.5655 207.933 19.4783C207.538 20.3849 207.34 21.4863 207.34 22.7825C207.34 24.1151 207.538 25.2347 207.933 26.1414C208.335 27.0481 208.895 27.7327 209.613 28.1951C210.331 28.6576 211.161 28.8888 212.105 28.8888C212.634 28.8888 213.124 28.8188 213.574 28.6789C214.031 28.5389 214.435 28.3351 214.788 28.0673C215.141 27.7935 215.433 27.4619 215.664 27.0724C215.902 26.683 216.066 26.2388 216.157 25.7398L220.155 25.7581C220.052 26.616 219.793 27.4436 219.379 28.2408C218.972 29.0318 218.421 29.7407 217.727 30.3675C217.04 30.9882 216.218 31.4811 215.263 31.8462C214.313 32.2052 213.239 32.3847 212.041 32.3847C210.373 32.3847 208.883 32.0074 207.568 31.2529C206.26 30.4983 205.225 29.406 204.465 27.9761C203.71 26.5461 203.333 24.8149 203.333 22.7825C203.333 20.744 203.716 19.0097 204.483 17.5797C205.25 16.1497 206.29 15.0605 207.605 14.3121C208.919 13.5575 210.398 13.1802 212.041 13.1802C213.124 13.1802 214.128 13.3324 215.053 13.6366C215.984 13.9409 216.808 14.3851 217.526 14.9692C218.244 15.5473 218.829 16.2562 219.279 17.096C219.735 17.9357 220.027 18.8971 220.155 19.9803Z" fill="#20A899"/>
<path d="M222.989 32.1291V13.4358H226.941V21.1486H234.965V13.4358H238.908V32.1291H234.965V24.4072H226.941V32.1291H222.989Z" fill="#20A899"/>
<path d="M78.0928 43.0822V53.0131H76.5944V43.0822H78.0928Z" fill="#293651"/>
<path d="M90.202 43.0822V53.0131H88.8248L83.777 45.7298H83.6849V53.0131H82.1865V43.0822H83.5733L88.626 50.3752H88.7182V43.0822H90.202Z" fill="#293651"/>
<path d="M99.7157 45.691C99.664 45.232 99.4506 44.8764 99.0756 44.6242C98.7007 44.3689 98.2287 44.2412 97.6597 44.2412C97.2524 44.2412 96.9 44.3058 96.6026 44.4351C96.3052 44.5612 96.0741 44.7358 95.9092 44.9588C95.7476 45.1786 95.6668 45.4292 95.6668 45.7104C95.6668 45.9464 95.7217 46.1501 95.8316 46.3214C95.9448 46.4927 96.0919 46.6366 96.2729 46.753C96.4572 46.8661 96.6544 46.9615 96.8645 47.0391C97.0746 47.1134 97.2767 47.1748 97.4706 47.2233L98.4404 47.4755C98.7572 47.5531 99.0821 47.6581 99.4151 47.7907C99.748 47.9232 100.057 48.0978 100.341 48.3144C100.626 48.5309 100.855 48.7993 101.03 49.1193C101.208 49.4393 101.296 49.8224 101.296 50.2685C101.296 50.831 101.151 51.3304 100.86 51.7669C100.572 52.2033 100.154 52.5476 99.6042 52.7997C99.0579 53.0519 98.3968 53.1779 97.6209 53.1779C96.8774 53.1779 96.2341 53.0599 95.691 52.8239C95.1479 52.588 94.7228 52.2534 94.4157 51.8202C94.1086 51.3838 93.9389 50.8666 93.9066 50.2685H95.4098C95.4389 50.6273 95.5552 50.9264 95.7589 51.1656C95.9658 51.4016 96.2293 51.5777 96.5493 51.6941C96.8726 51.8073 97.2265 51.8638 97.6112 51.8638C98.0347 51.8638 98.4113 51.7976 98.7411 51.665C99.074 51.5293 99.3359 51.3418 99.5266 51.1025C99.7173 50.8601 99.8127 50.5772 99.8127 50.254C99.8127 49.9598 99.7286 49.719 99.5605 49.5315C99.3957 49.344 99.171 49.1888 98.8865 49.0659C98.6053 48.9431 98.2869 48.8348 97.9313 48.7411L96.7578 48.421C95.9626 48.2044 95.3322 47.886 94.8667 47.4658C94.4044 47.0455 94.1733 46.4895 94.1733 45.7977C94.1733 45.2255 94.3284 44.7261 94.6388 44.2994C94.9491 43.8726 95.3694 43.5413 95.8995 43.3053C96.4297 43.0661 97.0277 42.9465 97.6937 42.9465C98.3661 42.9465 98.9593 43.0645 99.4733 43.3005C99.9905 43.5364 100.398 43.8613 100.695 44.2751C100.993 44.6857 101.148 45.1576 101.161 45.691H99.7157Z" fill="#293651"/>
<path d="M111.385 43.0822H112.888V49.6139C112.888 50.3089 112.725 50.9247 112.398 51.4614C112.072 51.9948 111.613 52.415 111.021 52.7221C110.43 53.026 109.736 53.1779 108.941 53.1779C108.149 53.1779 107.457 53.026 106.866 52.7221C106.274 52.415 105.815 51.9948 105.488 51.4614C105.162 50.9247 104.999 50.3089 104.999 49.6139V43.0822H106.497V49.4927C106.497 49.942 106.596 50.3412 106.793 50.6904C106.993 51.0395 107.276 51.3143 107.641 51.5147C108.007 51.7119 108.44 51.8105 108.941 51.8105C109.445 51.8105 109.88 51.7119 110.245 51.5147C110.614 51.3143 110.895 51.0395 111.089 50.6904C111.286 50.3412 111.385 49.942 111.385 49.4927V43.0822Z" fill="#293651"/>
<path d="M116.978 53.0131V43.0822H120.518C121.287 43.0822 121.926 43.2148 122.433 43.4799C122.944 43.7449 123.326 44.1119 123.578 44.5806C123.83 45.0461 123.956 45.5843 123.956 46.1953C123.956 46.8031 123.828 47.3381 123.573 47.8004C123.321 48.2594 122.939 48.6166 122.428 48.872C121.921 49.1274 121.282 49.2551 120.513 49.2551H117.832V47.9652H120.377C120.862 47.9652 121.257 47.8957 121.561 47.7567C121.868 47.6177 122.092 47.4157 122.235 47.1506C122.377 46.8855 122.448 46.5671 122.448 46.1953C122.448 45.8203 122.375 45.4954 122.23 45.2207C122.087 44.9459 121.863 44.7358 121.556 44.5903C121.252 44.4416 120.853 44.3672 120.358 44.3672H118.477V53.0131H116.978ZM121.881 48.5326L124.334 53.0131H122.627L120.222 48.5326H121.881Z" fill="#293651"/>
<path d="M127.691 53.0131V43.0822H133.917V44.3721H129.189V47.3979H133.592V48.6829H129.189V51.7232H133.975V53.0131H127.691Z" fill="#293651"/>
<path d="M145.846 43.0822V53.0131H144.468L139.421 45.7298H139.328V53.0131H137.83V43.0822H139.217L144.27 50.3752H144.362V43.0822H145.846Z" fill="#293651"/>
<path d="M158.191 46.3117H156.678C156.62 45.9884 156.512 45.704 156.353 45.4583C156.195 45.2126 156.001 45.0041 155.771 44.8327C155.542 44.6614 155.285 44.5321 155 44.4448C154.719 44.3575 154.42 44.3139 154.103 44.3139C153.531 44.3139 153.019 44.4578 152.566 44.7455C152.117 45.0332 151.761 45.455 151.499 46.0111C151.241 46.5671 151.112 47.2459 151.112 48.0477C151.112 48.8558 151.241 49.5379 151.499 50.0939C151.761 50.65 152.119 51.0702 152.571 51.3547C153.024 51.6392 153.533 51.7814 154.099 51.7814C154.412 51.7814 154.71 51.7394 154.991 51.6553C155.275 51.568 155.532 51.4404 155.762 51.2723C155.991 51.1042 156.185 50.8989 156.344 50.6564C156.505 50.4107 156.617 50.1295 156.678 49.8127L158.191 49.8175C158.11 50.3057 157.954 50.755 157.721 51.1656C157.491 51.5729 157.195 51.9253 156.833 52.2227C156.475 52.5168 156.064 52.7447 155.602 52.9064C155.14 53.068 154.635 53.1488 154.089 53.1488C153.229 53.1488 152.463 52.9452 151.79 52.5379C151.118 52.1273 150.588 51.5406 150.2 50.7777C149.815 50.0147 149.623 49.1047 149.623 48.0477C149.623 46.9873 149.817 46.0773 150.205 45.3176C150.593 44.5547 151.123 43.9696 151.795 43.5623C152.468 43.1517 153.232 42.9465 154.089 42.9465C154.616 42.9465 155.107 43.0224 155.563 43.1744C156.022 43.3231 156.434 43.5429 156.799 43.8338C157.165 44.1216 157.467 44.4739 157.706 44.8909C157.945 45.3047 158.107 45.7783 158.191 46.3117Z" fill="#293651"/>
<path d="M161.896 53.0131V43.0822H168.122V44.3721H163.394V47.3979H167.797V48.6829H163.394V51.7232H168.18V53.0131H161.896Z" fill="#293651"/>
<path d="M177.56 53.0131V43.0822H181.197C181.902 43.0822 182.485 43.1986 182.948 43.4314C183.41 43.6609 183.756 43.9729 183.985 44.3672C184.215 44.7584 184.33 45.1997 184.33 45.691C184.33 46.1048 184.254 46.4539 184.102 46.7384C183.95 47.0197 183.746 47.2459 183.491 47.4173C183.239 47.5854 182.961 47.7082 182.657 47.7858V47.8828C182.987 47.8989 183.308 48.0056 183.622 48.2028C183.939 48.3968 184.2 48.6732 184.407 49.032C184.614 49.3908 184.718 49.8272 184.718 50.3412C184.718 50.8488 184.598 51.3046 184.359 51.7087C184.123 52.1095 183.758 52.4279 183.263 52.6639C182.768 52.8967 182.136 53.0131 181.367 53.0131H177.56ZM179.059 51.7281H181.221C181.939 51.7281 182.453 51.5891 182.763 51.3111C183.074 51.033 183.229 50.6855 183.229 50.2685C183.229 49.9549 183.15 49.6672 182.991 49.4054C182.833 49.1435 182.607 48.935 182.313 48.7799C182.022 48.6247 181.676 48.5471 181.275 48.5471H179.059V51.7281ZM179.059 47.3785H181.066C181.403 47.3785 181.705 47.3138 181.973 47.1845C182.245 47.0552 182.46 46.8742 182.618 46.6414C182.78 46.4054 182.86 46.1274 182.86 45.8074C182.86 45.3968 182.717 45.0526 182.429 44.7746C182.141 44.4965 181.7 44.3575 181.105 44.3575H179.059V47.3785Z" fill="#293651"/>
<path d="M188.406 53.0131V43.0822H191.946C192.716 43.0822 193.354 43.2148 193.862 43.4799C194.372 43.7449 194.754 44.1119 195.006 44.5806C195.258 45.0461 195.384 45.5843 195.384 46.1953C195.384 46.8031 195.257 47.3381 195.001 47.8004C194.749 48.2594 194.368 48.6166 193.857 48.872C193.349 49.1274 192.711 49.2551 191.941 49.2551H189.26V47.9652H191.806C192.291 47.9652 192.685 47.8957 192.989 47.7567C193.296 47.6177 193.521 47.4157 193.663 47.1506C193.805 46.8855 193.876 46.5671 193.876 46.1953C193.876 45.8203 193.803 45.4954 193.658 45.2207C193.516 44.9459 193.291 44.7358 192.984 44.5903C192.68 44.4416 192.281 44.3672 191.786 44.3672H189.905V53.0131H188.406ZM193.309 48.5326L195.762 53.0131H194.056L191.65 48.5326H193.309Z" fill="#293651"/>
<path d="M207.746 48.0477C207.746 49.108 207.552 50.0196 207.164 50.7825C206.776 51.5422 206.244 52.1273 205.568 52.5379C204.896 52.9452 204.131 53.1488 203.275 53.1488C202.415 53.1488 201.647 52.9452 200.971 52.5379C200.299 52.1273 199.769 51.5406 199.381 50.7777C198.993 50.0147 198.799 49.1047 198.799 48.0477C198.799 46.9873 198.993 46.0773 199.381 45.3176C199.769 44.5547 200.299 43.9696 200.971 43.5623C201.647 43.1517 202.415 42.9465 203.275 42.9465C204.131 42.9465 204.896 43.1517 205.568 43.5623C206.244 43.9696 206.776 44.5547 207.164 45.3176C207.552 46.0773 207.746 46.9873 207.746 48.0477ZM206.262 48.0477C206.262 47.2395 206.131 46.559 205.869 46.0062C205.61 45.4502 205.255 45.0299 204.802 44.7455C204.353 44.4578 203.844 44.3139 203.275 44.3139C202.703 44.3139 202.192 44.4578 201.742 44.7455C201.293 45.0299 200.938 45.4502 200.676 46.0062C200.417 46.559 200.288 47.2395 200.288 48.0477C200.288 48.8558 200.417 49.5379 200.676 50.0939C200.938 50.6467 201.293 51.067 201.742 51.3547C202.192 51.6392 202.703 51.7814 203.275 51.7814C203.844 51.7814 204.353 51.6392 204.802 51.3547C205.255 51.067 205.61 50.6467 205.869 50.0939C206.131 49.5379 206.262 48.8558 206.262 48.0477Z" fill="#293651"/>
<path d="M211.525 53.0131V43.0822H213.024V47.8246H213.145L217.31 43.0822H219.197L215.191 47.5531L219.211 53.0131H217.407L214.197 48.5762L213.024 49.9242V53.0131H211.525Z" fill="#293651"/>
<path d="M222.505 53.0131V43.0822H228.731V44.3721H224.003V47.3979H228.406V48.6829H224.003V51.7232H228.789V53.0131H222.505Z" fill="#293651"/>
<path d="M232.644 53.0131V43.0822H236.184C236.953 43.0822 237.592 43.2148 238.099 43.4799C238.61 43.7449 238.991 44.1119 239.244 44.5806C239.496 45.0461 239.622 45.5843 239.622 46.1953C239.622 46.8031 239.494 47.3381 239.239 47.8004C238.987 48.2594 238.605 48.6166 238.094 48.872C237.587 49.1274 236.948 49.2551 236.179 49.2551H233.497V47.9652H236.043C236.528 47.9652 236.922 47.8957 237.226 47.7567C237.533 47.6177 237.758 47.4157 237.9 47.1506C238.043 46.8855 238.114 46.5671 238.114 46.1953C238.114 45.8203 238.041 45.4954 237.895 45.2207C237.753 44.9459 237.529 44.7358 237.221 44.5903C236.918 44.4416 236.518 44.3672 236.024 44.3672H234.142V53.0131H232.644ZM237.546 48.5326L240 53.0131H238.293L235.888 48.5326H237.546Z" fill="#293651"/>
<defs>
<linearGradient id="paint0_linear_0_57" x1="30.8118" y1="98.7214" x2="30.8118" y2="7.57995" gradientUnits="userSpaceOnUse">
<stop stop-color="#7B728C"/>
<stop offset="0.1533" stop-color="#807892" stop-opacity="0.8467"/>
<stop offset="0.3622" stop-color="#9087A4" stop-opacity="0.6378"/>
<stop offset="0.6031" stop-color="#A9A1C0" stop-opacity="0.3969"/>
<stop offset="0.866" stop-color="#CDC4E8" stop-opacity="0.134"/>
<stop offset="1" stop-color="#E1D9FF" stop-opacity="0"/>
</linearGradient>
<linearGradient id="paint1_linear_0_57" x1="47.2629" y1="69.2416" x2="44.1882" y2="21.7941" gradientUnits="userSpaceOnUse">
<stop stop-color="#7B728C"/>
<stop offset="1" stop-color="#E1D9FF" stop-opacity="0"/>
</linearGradient>
<clipPath id="clip0_0_57">
<rect width="72.2905" height="63.455" fill="white"/>
</clipPath>
</defs>
</svg>
