<svg width="147" height="36" viewBox="0 0 147 36" fill="none" xmlns="http://www.w3.org/2000/svg">
<g filter="url(#filter0_d_0_39)">
<rect x="4" width="28" height="28" rx="6" fill="#00A78E"/>
</g>
<g clip-path="url(#clip0_0_39)">
<path d="M16.5317 20V14.3693H15V12.3419H16.5317V10.6103C16.5317 9.24958 17.4364 8 19.5212 8C20.3653 8 20.9894 8.07866 20.9894 8.07866L20.9402 9.97185C20.9402 9.97185 20.3037 9.96583 19.6091 9.96583C18.8573 9.96583 18.7368 10.3026 18.7368 10.8616V12.3419H21L20.9015 14.3693H18.7368V20H16.5317Z" fill="white"/>
</g>
<g filter="url(#filter1_d_0_39)">
<rect x="41" width="28" height="28" rx="6" fill="#00A78E"/>
</g>
<path d="M55.051 9H55.14C55.962 9.00301 60.127 9.03315 61.25 9.3365C61.5895 9.42908 61.8989 9.60953 62.1472 9.85983C62.3955 10.1101 62.574 10.4215 62.665 10.7628C62.766 11.1445 62.837 11.6498 62.885 12.1711L62.895 12.2756L62.917 12.5367L62.925 12.6412C62.99 13.5593 62.998 14.4191 62.999 14.6069V14.6823C62.998 14.8771 62.989 15.7952 62.917 16.7515L62.909 16.8569L62.9 16.9614C62.85 17.5359 62.776 18.1065 62.665 18.5263C62.5743 18.8678 62.3958 19.1793 62.1475 19.4297C61.8991 19.68 61.5896 19.8604 61.25 19.9527C60.09 20.2661 55.681 20.2882 55.07 20.2892H54.928C54.619 20.2892 53.341 20.2831 52.001 20.2369L51.831 20.2309L51.744 20.2269L51.573 20.2199L51.402 20.2128C50.292 20.1636 49.235 20.0843 48.748 19.9517C48.4085 19.8595 48.0991 19.6792 47.8507 19.4291C47.6024 19.1789 47.4238 18.8676 47.333 18.5263C47.222 18.1075 47.148 17.5359 47.098 16.9614L47.09 16.8559L47.082 16.7515C47.0326 16.0708 47.0053 15.3888 47 14.7064L47 14.5828C47.002 14.3669 47.01 13.6205 47.064 12.7969L47.071 12.6934L47.074 12.6412L47.082 12.5367L47.104 12.2756L47.114 12.1711C47.162 11.6498 47.233 11.1435 47.334 10.7628C47.4247 10.4214 47.6032 10.1098 47.8515 9.8595C48.0999 9.60916 48.4094 9.4288 48.749 9.3365C49.236 9.20592 50.293 9.12556 51.403 9.07533L51.573 9.0683L51.745 9.06228L51.831 9.05926L52.002 9.05223C52.9537 9.02147 53.9058 9.00439 54.858 9.001H55.051V9ZM53.4 12.2243V17.0638L57.557 14.6451L53.4 12.2243Z" fill="white"/>
<g filter="url(#filter2_d_0_39)">
<rect x="78" width="28" height="28" rx="6" fill="#00A78E"/>
</g>
<g clip-path="url(#clip1_0_39)">
<path d="M88.724 20V11.9036H86.1516V20H88.724ZM87.4381 10.7975C88.3352 10.7975 88.8935 10.1758 88.8935 9.39884C88.8768 8.60439 88.3352 7.99994 87.4552 7.99994C86.5753 7.99994 85.9999 8.6044 85.9999 9.39884C85.9999 10.1758 86.5581 10.7975 87.4214 10.7975H87.4381H87.4381ZM90.1478 20H92.7201V15.4785C92.7201 15.2366 92.7368 14.9948 92.8047 14.8218C92.9907 14.3384 93.4139 13.8376 94.1245 13.8376C95.0553 13.8376 95.4277 14.5801 95.4277 15.6685V19.9999H97.9999V15.3575C97.9999 12.8706 96.7308 11.7135 95.0384 11.7135C93.6507 11.7135 93.0415 12.5249 92.703 13.0776H92.7201V11.9034H90.1478C90.1816 12.6631 90.1478 19.9998 90.1478 19.9998L90.1478 20Z" fill="white"/>
</g>
<g filter="url(#filter3_d_0_39)">
<rect x="115" width="28" height="28" rx="6" fill="#00A78E"/>
</g>
<g clip-path="url(#clip2_0_39)">
<path d="M129 7C127.097 7 126.86 7.00919 126.116 7.04069C125.368 7.07744 124.862 7.19338 124.416 7.36662C123.949 7.54295 123.526 7.81901 123.177 8.17556C122.819 8.52416 122.543 8.94737 122.368 9.415C122.194 9.86125 122.078 10.367 122.042 11.1147C122.008 11.8597 122.001 12.0964 122.001 13.9991C122.001 15.9018 122.01 16.1389 122.042 16.8836C122.078 17.6291 122.194 18.137 122.368 18.5832C122.544 19.0503 122.82 19.4733 123.177 19.8227C123.525 20.1802 123.948 20.4565 124.416 20.6316C124.862 20.8027 125.37 20.9208 126.116 20.9576C126.861 20.9912 127.097 20.9983 129 20.9983C130.903 20.9983 131.14 20.9891 131.885 20.9576C132.63 20.9208 133.138 20.8023 133.584 20.6316C134.051 20.4553 134.474 20.1792 134.824 19.8227C135.182 19.4745 135.458 19.0511 135.633 18.5832C135.804 18.137 135.922 17.6291 135.959 16.8836C135.992 16.1385 135.999 15.9018 135.999 13.9991C135.999 12.0964 135.99 11.8593 135.959 11.1147C135.922 10.3692 135.803 9.85863 135.633 9.415C135.456 8.94795 135.18 8.52498 134.824 8.17556C134.475 7.81755 134.052 7.54127 133.584 7.36662C133.138 7.19338 132.63 7.07744 131.885 7.04069C131.14 7.007 130.903 7 129 7ZM129 8.26C130.869 8.26 131.092 8.26919 131.83 8.30069C132.512 8.33263 132.883 8.44638 133.129 8.54263C133.433 8.65503 133.709 8.83393 133.936 9.06631C134.168 9.29199 134.346 9.56696 134.457 9.87087C134.553 10.1172 134.667 10.4882 134.699 11.1694C134.731 11.9079 134.74 12.1314 134.74 13.9996C134.74 15.8677 134.731 16.0913 134.696 16.8298C134.66 17.5109 134.546 17.8819 134.45 18.1283C134.318 18.4568 134.17 18.6865 133.926 18.935C133.698 19.1659 133.423 19.344 133.119 19.4565C132.876 19.5528 132.499 19.6665 131.815 19.6984C131.073 19.7299 130.854 19.7391 128.981 19.7391C127.108 19.7391 126.889 19.7299 126.146 19.6958C125.465 19.6591 125.089 19.5453 124.843 19.4495C124.51 19.3169 124.282 19.1691 124.038 18.9249C123.792 18.6786 123.635 18.4441 123.514 18.1182C123.416 17.8749 123.304 17.4987 123.268 16.8149C123.243 16.0812 123.231 15.8537 123.231 13.9891C123.231 12.1253 123.243 11.8974 123.268 11.1545C123.304 10.4707 123.416 10.0953 123.514 9.85119C123.635 9.51825 123.792 9.29075 124.038 9.04444C124.282 8.80075 124.51 8.64325 124.843 8.51987C125.089 8.42406 125.456 8.31031 126.139 8.27619C126.882 8.2495 127.101 8.23988 128.971 8.23988L129 8.26ZM129 10.4068C128.528 10.4066 128.061 10.4995 127.625 10.68C127.189 10.8605 126.793 11.1252 126.459 11.4588C126.125 11.7925 125.861 12.1887 125.68 12.6247C125.5 13.0608 125.407 13.5281 125.407 14C125.407 14.4719 125.5 14.9392 125.68 15.3753C125.861 15.8113 126.125 16.2075 126.459 16.5412C126.793 16.8748 127.189 17.1395 127.625 17.32C128.061 17.5005 128.528 17.5934 129 17.5932C129.472 17.5934 129.939 17.5005 130.375 17.32C130.811 17.1395 131.208 16.8748 131.541 16.5412C131.875 16.2075 132.14 15.8113 132.32 15.3753C132.501 14.9392 132.593 14.4719 132.593 14C132.593 13.5281 132.501 13.0608 132.32 12.6247C132.14 12.1887 131.875 11.7925 131.541 11.4588C131.208 11.1252 130.811 10.8605 130.375 10.68C129.939 10.4995 129.472 10.4066 129 10.4068V10.4068ZM129 16.3332C127.71 16.3332 126.667 15.2897 126.667 14C126.667 12.7103 127.71 11.6668 129 11.6668C130.29 11.6668 131.333 12.7103 131.333 14C131.333 15.2897 130.29 16.3332 129 16.3332ZM133.578 10.2633C133.578 10.4863 133.489 10.7001 133.331 10.8576C133.174 11.0152 132.96 11.1038 132.737 11.1038C132.627 11.1038 132.517 11.082 132.416 11.0398C132.314 10.9977 132.221 10.9358 132.143 10.8578C132.065 10.7799 132.003 10.6873 131.961 10.5855C131.919 10.4836 131.897 10.3744 131.897 10.2642C131.897 10.1539 131.919 10.0448 131.961 9.9429C132.003 9.84104 132.065 9.74849 132.143 9.67053C132.221 9.59257 132.314 9.53072 132.416 9.48853C132.517 9.44634 132.627 9.42462 132.737 9.42462C133.199 9.42462 133.578 9.80088 133.578 10.2633V10.2633Z" fill="white"/>
</g>
<defs>
<filter id="filter0_d_0_39" x="0" y="0" width="36" height="36" filterUnits="userSpaceOnUse" color-interpolation-filters="sRGB">
<feFlood flood-opacity="0" result="BackgroundImageFix"/>
<feColorMatrix in="SourceAlpha" type="matrix" values="0 0 0 0 0 0 0 0 0 0 0 0 0 0 0 0 0 0 127 0" result="hardAlpha"/>
<feOffset dy="4"/>
<feGaussianBlur stdDeviation="2"/>
<feComposite in2="hardAlpha" operator="out"/>
<feColorMatrix type="matrix" values="0 0 0 0 0 0 0 0 0 0 0 0 0 0 0 0 0 0 0.12 0"/>
<feBlend mode="normal" in2="BackgroundImageFix" result="effect1_dropShadow_0_39"/>
<feBlend mode="normal" in="SourceGraphic" in2="effect1_dropShadow_0_39" result="shape"/>
</filter>
<filter id="filter1_d_0_39" x="37" y="0" width="36" height="36" filterUnits="userSpaceOnUse" color-interpolation-filters="sRGB">
<feFlood flood-opacity="0" result="BackgroundImageFix"/>
<feColorMatrix in="SourceAlpha" type="matrix" values="0 0 0 0 0 0 0 0 0 0 0 0 0 0 0 0 0 0 127 0" result="hardAlpha"/>
<feOffset dy="4"/>
<feGaussianBlur stdDeviation="2"/>
<feComposite in2="hardAlpha" operator="out"/>
<feColorMatrix type="matrix" values="0 0 0 0 0 0 0 0 0 0 0 0 0 0 0 0 0 0 0.12 0"/>
<feBlend mode="normal" in2="BackgroundImageFix" result="effect1_dropShadow_0_39"/>
<feBlend mode="normal" in="SourceGraphic" in2="effect1_dropShadow_0_39" result="shape"/>
</filter>
<filter id="filter2_d_0_39" x="74" y="0" width="36" height="36" filterUnits="userSpaceOnUse" color-interpolation-filters="sRGB">
<feFlood flood-opacity="0" result="BackgroundImageFix"/>
<feColorMatrix in="SourceAlpha" type="matrix" values="0 0 0 0 0 0 0 0 0 0 0 0 0 0 0 0 0 0 127 0" result="hardAlpha"/>
<feOffset dy="4"/>
<feGaussianBlur stdDeviation="2"/>
<feComposite in2="hardAlpha" operator="out"/>
<feColorMatrix type="matrix" values="0 0 0 0 0 0 0 0 0 0 0 0 0 0 0 0 0 0 0.12 0"/>
<feBlend mode="normal" in2="BackgroundImageFix" result="effect1_dropShadow_0_39"/>
<feBlend mode="normal" in="SourceGraphic" in2="effect1_dropShadow_0_39" result="shape"/>
</filter>
<filter id="filter3_d_0_39" x="111" y="0" width="36" height="36" filterUnits="userSpaceOnUse" color-interpolation-filters="sRGB">
<feFlood flood-opacity="0" result="BackgroundImageFix"/>
<feColorMatrix in="SourceAlpha" type="matrix" values="0 0 0 0 0 0 0 0 0 0 0 0 0 0 0 0 0 0 127 0" result="hardAlpha"/>
<feOffset dy="4"/>
<feGaussianBlur stdDeviation="2"/>
<feComposite in2="hardAlpha" operator="out"/>
<feColorMatrix type="matrix" values="0 0 0 0 0 0 0 0 0 0 0 0 0 0 0 0 0 0 0.12 0"/>
<feBlend mode="normal" in2="BackgroundImageFix" result="effect1_dropShadow_0_39"/>
<feBlend mode="normal" in="SourceGraphic" in2="effect1_dropShadow_0_39" result="shape"/>
</filter>
<clipPath id="clip0_0_39">
<rect width="6" height="12" fill="white" transform="translate(15 8)"/>
</clipPath>
<clipPath id="clip1_0_39">
<rect width="12" height="12" fill="white" transform="translate(86 8)"/>
</clipPath>
<clipPath id="clip2_0_39">
<rect width="14" height="14" fill="white" transform="translate(122 7)"/>
</clipPath>
</defs>
</svg>
